<svg width="43" height="43" viewBox="0 0 43 43" fill="none" xmlns="http://www.w3.org/2000/svg">
<rect x="0.5" y="0.5" width="42" height="42" rx="1.5" fill="#EC602E" stroke="white"/>
<g clip-path="url(#clip0_225_390)">
<path d="M28.9628 14.7477C29.159 14.5515 29.159 14.2333 28.9628 14.0371V14.0371C28.7666 13.8408 28.4484 13.8408 28.2521 14.0371L21.4999 20.7893L14.7477 14.0371C14.5515 13.8408 14.2333 13.8408 14.0371 14.0371V14.0371C13.8408 14.2333 13.8408 14.5515 14.0371 14.7477L20.7893 21.4999L14.0371 28.2521C13.8408 28.4484 13.8408 28.7666 14.0371 28.9628V28.9628C14.2333 29.159 14.5515 29.159 14.7477 28.9628L21.4999 22.2106L28.2521 28.9628C28.4484 29.159 28.7666 29.159 28.9628 28.9628V28.9628C29.159 28.7666 29.159 28.4484 28.9628 28.2521L22.2106 21.4999L28.9628 14.7477Z" fill="white"/>
</g>
<defs>
<clipPath id="clip0_225_390">
<rect width="15.3737" height="15.3737" fill="white" transform="translate(13.6818 13.6818) scale(1.01709)"/>
</clipPath>
</defs>
</svg>
