<svg width="24" height="24" viewBox="0 0 24 24" fill="none" xmlns="http://www.w3.org/2000/svg">
<g clip-path="url(#clip0_225_781)">
<path d="M16 18.2222V20H0.444443C0.198666 20 0 20.1991 0 20.4444C0 20.6897 0.198666 20.8889 0.444443 20.8889H16V22.6666C16 22.912 16.1986 23.1111 16.4444 23.1111H21.7777C22.0235 23.1111 22.2222 22.912 22.2222 22.6666V20.8889H23.5555C23.8013 20.8889 23.9999 20.6897 23.9999 20.4444C23.9999 20.1991 23.8013 20 23.5555 20H22.2222V18.2222C22.2222 17.9769 22.0235 17.7778 21.7777 17.7778H16.4444C16.1986 17.7778 16 17.9769 16 18.2222Z" fill="white"/>
<path d="M8.88886 9.77774V11.5555H0.444443C0.198666 11.5555 0 11.7546 0 12C0 12.2453 0.198666 12.4444 0.444443 12.4444H8.88886V14.2222C8.88886 14.4675 9.08753 14.6666 9.33331 14.6666H14.6666C14.9124 14.6666 15.1111 14.4675 15.1111 14.2222V12.4444H23.5555C23.8013 12.4444 23.9999 12.2453 23.9999 12C23.9999 11.7546 23.8013 11.5555 23.5555 11.5555H15.1111V9.77774C15.1111 9.53241 14.9124 9.3333 14.6666 9.3333H9.33331C9.08753 9.3333 8.88886 9.53241 8.88886 9.77774Z" fill="white"/>
<path d="M1.77777 1.33334V3.11112H0.444443C0.198666 3.11112 0 3.31023 0 3.55556C0 3.80089 0.198666 4 0.444443 4H1.77777V5.77777C1.77777 6.02311 1.97644 6.22222 2.22222 6.22222H7.55553C7.80131 6.22222 7.99998 6.02311 7.99998 5.77777V4H23.5555C23.8013 4 23.9999 3.80089 23.9999 3.55556C23.9999 3.31023 23.8013 3.11112 23.5555 3.11112H7.99998V1.33334C7.99998 1.08801 7.80131 0.888901 7.55553 0.888901H2.22222C1.97644 0.888901 1.77777 1.08801 1.77777 1.33334Z" fill="white"/>
</g>
<defs>
<clipPath id="clip0_225_781">
<rect width="23.1286" height="23.1286" fill="white" transform="scale(1.03767)"/>
</clipPath>
</defs>
</svg>
