<svg width="24" height="24" viewBox="0 0 24 24" fill="none" xmlns="http://www.w3.org/2000/svg">
<g clip-path="url(#clip0_215_1849)">
<path d="M21.05 5.92866V0H2.95003V5.92875L0 8.2282V24H24V8.2282L21.05 5.92866ZM21.05 7.91325L21.9808 8.63878L21.05 9.46547V7.91325ZM4.51523 1.5652H19.4847L19.4848 10.8555L12 17.5028L4.51523 10.8555V1.5652ZM2.95003 7.9132V9.46547L2.01919 8.63878L2.95003 7.9132ZM1.5652 10.329L8.19042 16.2129L1.5652 21.5946V10.329ZM3.01336 22.4348L9.37641 17.2661L12 19.5961L14.6236 17.2661L20.9867 22.4348H3.01336ZM22.4348 21.5946L15.8095 16.2129L22.4348 10.329V21.5946Z" fill="white"/>
<path d="M9.51896 5.51884H14.4813V9.37648L12.0001 12.2121L9.51896 9.37648V5.51884Z" stroke="white"/>
</g>
<defs>
<clipPath id="clip0_215_1849">
<rect width="23.1286" height="23.1286" fill="white" transform="scale(1.03768)"/>
</clipPath>
</defs>
</svg>
