<svg width="16" height="16" viewBox="0 0 16 16" fill="none" xmlns="http://www.w3.org/2000/svg">
<g clip-path="url(#clip0_228_1940)">
<path d="M15.4688 14.5688L11.7876 10.8876C12.7001 9.77509 13.2501 8.35009 13.2501 6.79696C13.2501 3.23446 10.3595 0.343832 6.79696 0.343832C3.23134 0.343832 0.343832 3.23446 0.343832 6.79696C0.343832 10.3595 3.23134 13.2501 6.79696 13.2501C8.35009 13.2501 9.77197 12.7032 10.8845 11.7907L14.5657 15.4688C14.8157 15.7189 15.2188 15.7189 15.4688 15.4688C15.7189 15.222 15.7189 14.8157 15.4688 14.5688ZM6.79696 11.9657C3.94384 11.9657 1.62508 9.64697 1.62508 6.79696C1.62508 3.94696 3.94384 1.62508 6.79696 1.62508C9.64697 1.62508 11.9688 3.94696 11.9688 6.79696C11.9688 9.64697 9.64697 11.9657 6.79696 11.9657Z" fill="white"/>
</g>
<defs>
<clipPath id="clip0_228_1940">
<rect width="15.5645" height="15.5645" fill="white" transform="scale(1.02798)"/>
</clipPath>
</defs>
</svg>
