<svg width="16" height="16" viewBox="0 0 16 16" fill="none" xmlns="http://www.w3.org/2000/svg">
<g clip-path="url(#clip0_225_687)">
<path d="M15.6527 7.28228C15.9676 6.97535 16.0788 6.52489 15.9429 6.10615C15.8068 5.68741 15.4521 5.38849 15.0164 5.32505L11.1423 4.76214C10.9773 4.73811 10.8347 4.63462 10.7611 4.485L9.02906 0.974878C8.83459 0.580486 8.43987 0.335392 7.99999 0.335392C7.56042 0.335392 7.16571 0.580486 6.97123 0.974878L5.23892 4.48533C5.16523 4.63494 5.02234 4.73843 4.85734 4.76246L0.983258 5.32537C0.547856 5.38849 0.19287 5.68773 0.0567072 6.10647C-0.0791356 6.52521 0.0320376 6.97567 0.346975 7.2826L3.15001 10.0148C3.26952 10.1315 3.3243 10.2993 3.29611 10.4634L2.63484 14.3214C2.57621 14.661 2.66527 14.9914 2.88506 15.2518C3.22659 15.6578 3.82282 15.7814 4.29955 15.5309L7.76418 13.7092C7.909 13.6332 8.0913 13.6339 8.23579 13.7092L11.7007 15.5309C11.8693 15.6196 12.049 15.6645 12.2345 15.6645C12.5731 15.6645 12.8942 15.5139 13.1149 15.2518C13.335 14.9914 13.4238 14.6604 13.3651 14.3214L12.7035 10.4634C12.6754 10.299 12.7301 10.1315 12.8496 10.0148L15.6527 7.28228Z" fill="#FFAA2A"/>
</g>
<defs>
<clipPath id="clip0_225_687">
<rect width="15.3388" height="15.3388" fill="white" transform="scale(1.0431)"/>
</clipPath>
</defs>
</svg>
