<svg width="23" height="54" viewBox="0 0 23 54" fill="none" xmlns="http://www.w3.org/2000/svg">
<g opacity="0.3">
<path opacity="0.3" d="M19.7918 20.0317C19.0279 20.4381 18.1799 20.6616 17.3147 20.6848C16.4495 20.7079 15.5908 20.53 14.8062 20.165C14.0216 19.8001 13.3325 19.2581 12.7934 18.5817C12.2542 17.9053 11.8797 17.1131 11.6993 16.2675C11.519 15.4218 11.5377 14.5459 11.7539 13.7087C11.9702 12.8716 12.3782 12.096 12.9458 11.4432C13.5133 10.7904 14.2248 10.2783 15.0243 9.94704C15.8238 9.61583 16.6893 9.47463 17.5527 9.5346L17.8174 12.3993L18.8193 9.77047C20.2297 10.2042 21.4101 11.1796 22.1009 12.4823C22.3453 12.9382 22.5238 13.4265 22.6311 13.9325C22.886 15.1193 22.7468 16.3567 22.2344 17.4573C21.7221 18.5579 20.8645 19.4617 19.7918 20.0317V20.0317Z" fill="#0F263D"/>
<path opacity="0.3" d="M17.8004 53.9731C17.9332 51.4862 15.5682 49.6325 13.3347 48.5261C11.1012 47.4197 8.52828 46.3862 7.49835 44.1182C6.01815 40.8587 8.55057 37.3238 10.4845 34.3109C11.9193 32.0749 13.0837 29.677 13.9534 27.1673C14.302 26.161 14.6055 25.1176 14.5839 24.053C14.5528 22.5198 13.8555 21.0884 13.1634 19.7196C10.8577 15.1598 8.44512 10.6561 5.92571 6.20837" stroke="#0F263D" stroke-miterlimit="10"/>
<path opacity="0.3" d="M19.4603 19.3315C18.6963 19.7379 17.8483 19.9615 16.9832 19.9846C16.118 20.0077 15.2592 19.8298 14.4746 19.4648C13.69 19.0999 13.001 18.5579 12.4618 17.8815C11.9227 17.2051 11.5482 16.4129 11.3678 15.5673C11.1874 14.7217 11.2061 13.8457 11.4224 13.0086C11.6387 12.1714 12.0467 11.3958 12.6142 10.743C13.1817 10.0903 13.8933 9.57806 14.6927 9.24685C15.4922 8.91563 16.3578 8.77445 17.2212 8.83442L17.4858 11.6991L18.4878 9.07027C19.8982 9.50401 21.0785 10.4794 21.7694 11.7821C22.0138 12.2381 22.1923 12.7263 22.2995 13.2323C22.5545 14.4191 22.4152 15.6566 21.9029 16.7572C21.3905 17.8578 20.533 18.7615 19.4603 19.3315Z" stroke="#0F263D" stroke-miterlimit="10"/>
<path opacity="0.3" d="M11.4688 4.42223C11.0293 3.59572 10.3886 2.89301 9.60582 2.37887C8.82302 1.86472 7.92326 1.55568 6.98947 1.48019L6.91715 4.24938L5.66995 1.5281C4.49964 1.71132 3.4179 2.26134 2.5809 3.09876C1.7439 3.93617 1.19496 5.01765 1.01333 6.18704C0.831694 7.35644 1.02677 8.55322 1.5704 9.60464C2.11402 10.6561 2.97806 11.5077 4.03776 12.0366C5.09747 12.5655 6.29801 12.7442 7.46604 12.5471C8.63408 12.3499 9.70918 11.787 10.5361 10.9397C11.363 10.0924 11.899 9.00442 12.0667 7.83295C12.2343 6.66147 12.025 5.46709 11.4688 4.42223V4.42223Z" fill="#0F263D"/>
<path opacity="0.3" d="M11.0268 3.48859C10.5873 2.66209 9.94659 1.95938 9.16378 1.44524C8.38097 0.931089 7.48122 0.622031 6.54743 0.546547L6.4751 3.31573L5.22791 0.594468C4.0576 0.777686 2.97585 1.32771 2.13885 2.16512C1.30185 3.00254 0.75291 4.084 0.571278 5.25339C0.389646 6.42278 0.584724 7.61958 1.12835 8.671C1.67197 9.72242 2.53601 10.574 3.59571 11.1029C4.65542 11.6318 5.85596 11.8106 7.02399 11.6134C8.19203 11.4163 9.26713 10.8534 10.0941 10.0061C10.921 9.15873 11.457 8.07078 11.6246 6.89931C11.7923 5.72784 11.5829 4.53345 11.0268 3.48859V3.48859Z" stroke="#0F263D" stroke-miterlimit="10"/>
<path opacity="0.3" d="M11.4639 34.2284C10.2523 34.8718 8.84594 35.0474 7.51302 34.7216C6.1801 34.3958 5.01378 33.5914 4.23639 32.4618C3.45899 31.3321 3.12487 29.9562 3.29771 28.5963C3.47055 27.2364 4.13827 25.9875 5.17359 25.0878L6.13196 27.179L6.2044 24.3773C6.20865 24.3745 6.2131 24.3721 6.21773 24.37C6.86575 24.0253 7.5754 23.8115 8.30614 23.741C9.03688 23.6704 9.77438 23.7443 10.4765 23.9586C11.1786 24.1728 11.8316 24.5232 12.3981 24.9896C12.9646 25.4561 13.4336 26.0295 13.7782 26.677C14.1228 27.3246 14.3363 28.0337 14.4065 28.7637C14.4767 29.4938 14.4022 30.2305 14.1873 30.9317C13.9724 31.633 13.6213 32.2851 13.154 32.8508C12.6867 33.4164 12.1124 33.8845 11.4639 34.2284V34.2284Z" fill="#0F263D"/>
<path opacity="0.3" d="M11.0604 33.2763C9.84871 33.9198 8.44238 34.0954 7.10946 33.7696C5.77654 33.4438 4.61022 32.6394 3.83282 31.5097C3.05542 30.3801 2.7213 29.0042 2.89415 27.6442C3.06699 26.2843 3.73471 25.0355 4.77003 24.1357L5.7284 26.227L5.80085 23.4252C5.80509 23.4225 5.80955 23.42 5.81418 23.4179C6.46218 23.0734 7.17178 22.8598 7.90245 22.7893C8.63311 22.7188 9.37052 22.7928 10.0725 23.0071C10.7746 23.2214 11.4274 23.5718 11.9939 24.0382C12.5603 24.5046 13.0292 25.078 13.3738 25.7255C13.7184 26.373 13.9318 27.0819 14.0021 27.8119C14.0723 28.5418 13.9979 29.2785 13.783 29.9797C13.5682 30.6809 13.2172 31.3329 12.75 31.8986C12.2828 32.4642 11.7087 32.9324 11.0604 33.2763V33.2763Z" stroke="#0F263D" stroke-miterlimit="10"/>
<path opacity="0.3" d="M18.5248 42.5934C18.4821 43.8728 18.0003 45.0987 17.1603 46.0653C16.3202 47.032 15.173 47.6807 13.911 47.9027C12.649 48.1247 11.3489 47.9064 10.2289 47.2845C9.10886 46.6626 8.23694 45.6749 7.75936 44.487C7.28177 43.2991 7.22758 41.9833 7.60586 40.7602C7.98414 39.5372 8.77189 38.4812 9.837 37.7695C10.9021 37.0578 12.1798 36.7336 13.4558 36.8512C14.7318 36.9689 15.9285 37.5213 16.8452 38.4157L14.9052 42.4711L17.9949 40.0273C18.3748 40.8279 18.5565 41.708 18.5248 42.5934V42.5934Z" fill="#0F263D"/>
<path opacity="0.3" d="M18.1933 41.8931C18.1506 43.1725 17.6688 44.3983 16.8287 45.365C15.9887 46.3316 14.8415 46.9803 13.5795 47.2023C12.3174 47.4243 11.0174 47.206 9.89737 46.5841C8.77733 45.9622 7.9054 44.9745 7.42782 43.7866C6.95024 42.5988 6.89604 41.283 7.27432 40.0599C7.6526 38.8368 8.44035 37.7809 9.50546 37.0692C10.5706 36.3574 11.8483 36.0332 13.1243 36.1509C14.4003 36.2685 15.597 36.8209 16.5137 37.7154L14.5736 41.7708L17.6634 39.327C18.0432 40.1276 18.225 41.0076 18.1933 41.8931V41.8931Z" stroke="#0F263D" stroke-miterlimit="10"/>
</g>
</svg>
