<svg width="16" height="16" viewBox="0 0 16 16" fill="none" xmlns="http://www.w3.org/2000/svg">
<g clip-path="url(#clip0_204_275)">
<path d="M0.565624 8.56933C0.250483 8.56933 0 8.31084 0 7.99587C0 7.6809 0.250483 7.43055 0.565624 7.43055H7.42592V0.57346C7.42643 0.258489 7.68506 0 8.0002 0C8.31534 0 8.56582 0.258489 8.56582 0.57346V7.43055H15.4261C15.7413 7.43055 15.9999 7.6809 15.9999 7.99587C15.9999 8.31084 15.7413 8.56933 15.4261 8.56933H8.56582V15.4264C8.56582 15.7414 8.31534 15.9999 8.0002 15.9999C7.68506 15.9999 7.42643 15.7414 7.42643 15.4264V8.56933H0.565624Z" fill="#334E68"/>
</g>
<defs>
<clipPath id="clip0_204_275">
<rect width="15.36" height="15.36" fill="white" transform="scale(1.04166)"/>
</clipPath>
</defs>
</svg>
