<svg width="106" height="40" viewBox="0 0 106 40" fill="none" xmlns="http://www.w3.org/2000/svg">
<rect x="67.2002" width="38.4" height="40" rx="2" fill="#0F263D"/>
<g clip-path="url(#clip0_204_334)">
<path d="M95.2239 21.5234C94.6248 21.5234 94.0672 21.6887 93.5677 21.9559L92.5794 20.7324C93.0176 20.4626 93.4916 20.2551 93.9926 20.1383C94.4011 20.0424 94.8059 20.0073 95.2279 20.0008C95.7729 20.0052 96.3092 19.7812 96.7104 19.367C97.129 18.9356 97.3689 18.3353 97.3689 17.6256C97.3689 13.7243 94.2139 10.8594 90.8827 10.8594H90.0564C89.6523 10.8594 89.3252 11.2002 89.3252 11.6211C89.3252 12.042 89.6523 12.3828 90.0564 12.3828H90.8827C91.1005 12.3828 91.3083 12.4219 91.5189 12.4501V13.9219C91.0943 13.962 90.6944 14.0989 90.316 14.2823C90.3112 14.2766 90.3051 14.2728 90.3005 14.2671C89.7003 14.5595 89.1829 15.0167 88.8081 15.6023L87.1436 18.2028C87.0293 18.3806 86.8494 18.5004 86.6458 18.5331C85.1654 18.7701 83.8821 19.7532 83.2082 21.1888C83.8328 22.1612 84.2064 23.3196 84.2064 24.5703H82.6952C82.6952 22.0501 80.7271 20 78.3077 20C75.8883 20 73.9202 22.0501 73.9202 24.5703C73.9202 27.0905 75.8883 29.1406 78.3077 29.1406C80.2118 29.1406 81.82 27.8632 82.4257 26.0938H89.3252C89.7293 26.0938 90.0564 25.753 90.0564 25.332C90.0564 24.9087 90.105 24.4765 90.2 24.0482C90.3992 23.1588 90.8433 22.3492 91.4393 21.6879L92.4263 22.9096C91.8983 23.57 91.5677 24.4075 91.5677 25.332C91.5677 27.4319 93.208 29.1406 95.2239 29.1406C97.2398 29.1406 98.8802 27.4319 98.8802 25.332C98.8802 23.2321 97.2398 21.5234 95.2239 21.5234V21.5234ZM78.3077 27.6172C76.6945 27.6172 75.3827 26.2507 75.3827 24.5703C75.3827 22.89 76.6945 21.5234 78.3077 21.5234C79.9208 21.5234 81.2327 22.89 81.2327 24.5703H79.0389C78.6354 24.5703 78.3077 24.2289 78.3077 23.8086C78.3077 23.3877 77.9805 23.0469 77.5764 23.0469C77.1723 23.0469 76.8452 23.3877 76.8452 23.8086C76.8452 25.0686 77.8293 26.0938 79.0389 26.0938H80.8259C80.3186 27.0001 79.3857 27.6172 78.3077 27.6172ZM95.2239 27.6172C94.0143 27.6172 93.0302 26.592 93.0302 25.332C93.0302 24.8907 93.1564 24.4818 93.3653 24.1319L94.6526 25.8081C94.9068 26.1384 95.3673 26.1882 95.6809 25.9271C95.9959 25.6637 96.0473 25.1848 95.7952 24.856L94.5094 23.1818C94.7345 23.1002 94.9724 23.0469 95.2239 23.0469C96.4335 23.0469 97.4177 24.072 97.4177 25.332C97.4177 26.592 96.4335 27.6172 95.2239 27.6172Z" fill="white"/>
<path d="M86.3384 16.7149L87.5913 14.7572C87.9917 14.1312 88.5169 13.6226 89.1136 13.2276C88.3111 12.6998 87.386 12.3828 86.4001 12.3828C84.6723 12.3828 83.0764 13.3002 82.137 14.7715L83.3066 15.5027C84.2462 16.0898 85.2751 16.483 86.3384 16.7149V16.7149Z" fill="white"/>
<path d="M82.5541 16.8087L77.8615 13.9062H74.6514C74.2473 13.9062 73.9202 14.247 73.9202 14.668C73.9202 16.7679 75.5605 18.4766 77.5764 18.4766C79.0391 18.4766 80.5564 18.5097 82.1821 19.9818C82.1884 19.9697 82.1884 19.956 82.1955 19.9443C82.7628 18.9941 83.5637 18.2574 84.482 17.7396C83.8172 17.4863 83.1663 17.1912 82.5541 16.8087Z" fill="white"/>
</g>
<rect width="38.4" height="40" rx="2" fill="white"/>
<g clip-path="url(#clip1_204_334)">
<path d="M30.7555 18.7269C30.2973 18.5673 27.1103 17.8418 27.1103 17.8418C27.1103 17.8418 21.2023 14.3422 20.4932 14.3422C19.7842 14.3422 14.9205 14.3444 14.9205 14.3444C13.7322 14.3444 12.7391 15.2877 11.5892 16.3798C11.0473 16.8943 10.4492 17.4606 9.78943 17.9644L7.33222 18.3047C6.97716 18.4226 6.71997 18.7687 6.71997 19.1776V22.1103C6.71997 22.6164 7.11378 23.0267 7.59969 23.0267H9.2882C9.41083 24.4987 10.5995 25.6578 12.044 25.6578C13.4884 25.6578 14.6771 24.4987 14.7998 23.0267H22.8623C22.9849 24.4988 24.1736 25.6578 25.6181 25.6578C27.0625 25.6578 28.2512 24.4987 28.3739 23.0267H29.7611C30.8602 23.0267 31.3973 22.5322 31.5322 22.068C31.8732 20.8934 31.6279 19.0307 30.7555 18.7269ZM12.044 24.2687C11.2536 24.2687 10.6105 23.5989 10.6105 22.7756C10.6105 21.9523 11.2535 21.2824 12.044 21.2824C12.8344 21.2824 13.4774 21.9522 13.4774 22.7756C13.4774 23.5989 12.8344 24.2687 12.044 24.2687ZM17.365 17.8418H12.5576C12.9053 17.5557 13.2268 17.2519 13.523 16.9707C14.3014 16.2314 14.9737 15.5929 15.7781 15.5929C15.7781 15.5929 16.5061 15.5926 17.365 15.5922V17.8418H17.365ZM18.5356 15.5917C19.1306 15.5915 19.6609 15.5913 19.927 15.5913C20.5896 15.5913 23.2768 17.2169 24.2854 17.8419H18.5356V15.5917ZM25.618 24.2687C24.8276 24.2687 24.1846 23.5989 24.1846 22.7756C24.1846 21.9523 24.8276 21.2824 25.618 21.2824C26.4084 21.2824 27.0515 21.9522 27.0515 22.7756C27.0515 23.5989 26.4084 24.2687 25.618 24.2687Z" fill="#0F263D"/>
</g>
<defs>
<clipPath id="clip0_204_334">
<rect width="24.96" height="26" fill="white" transform="translate(73.9202 7)"/>
</clipPath>
<clipPath id="clip1_204_334">
<rect width="24.96" height="26" fill="white" transform="translate(6.71997 7)"/>
</clipPath>
</defs>
</svg>
