<svg width="24" height="24" viewBox="0 0 24 24" fill="none" xmlns="http://www.w3.org/2000/svg">
<g clip-path="url(#clip0_215_1864)">
<path d="M12 0C5.3832 0 0 5.38327 0 12.0001C0 18.6169 5.3832 24 12 24C18.6168 24 24 18.6169 24 12.0001C24 5.38327 18.6168 0 12 0ZM12 21.8182C6.58618 21.8182 2.18182 17.4138 2.18182 12.0001C2.18182 6.58633 6.58618 2.18182 12 2.18182C17.4138 2.18182 21.8182 6.58633 21.8182 12.0001C21.8182 17.4138 17.4138 21.8182 12 21.8182Z" fill="white"/>
<path d="M11.9997 5.09087C11.1979 5.09087 10.5455 5.74367 10.5455 6.54607C10.5455 7.34774 11.1979 7.99996 11.9997 7.99996C12.8016 7.99996 13.454 7.34774 13.454 6.54607C13.454 5.74367 12.8016 5.09087 11.9997 5.09087Z" fill="white"/>
<path d="M12.0002 10.1817C11.3977 10.1817 10.9093 10.6702 10.9093 11.2727V17.8181C10.9093 18.4206 11.3977 18.909 12.0002 18.909C12.6027 18.909 13.0911 18.4206 13.0911 17.8181V11.2727C13.0911 10.6702 12.6027 10.1817 12.0002 10.1817Z" fill="white"/>
</g>
<defs>
<clipPath id="clip0_215_1864">
<rect width="23.1286" height="23.1286" fill="white" transform="scale(1.03768)"/>
</clipPath>
</defs>
</svg>
