<svg width="192" height="192" viewBox="0 0 192 192" fill="none" xmlns="http://www.w3.org/2000/svg">
<path d="M151.757 46.5002L136.782 37.8045C136.44 37.6061 136.047 37.5133 135.653 37.538L113.024 38.9521C112.53 38.9829 112.043 38.8301 111.656 38.523L83.8034 16.433C83.4499 16.1526 83.0119 16 82.5607 16L58.3744 16C57.9725 16 57.5799 15.8789 57.2478 15.6525L36.2672 1.34755C35.9351 1.12112 35.5425 1 35.1406 1L18.3394 1C17.6644 1 17.0349 1.34052 16.6655 1.90551L1.28629 25.4266C0.708113 26.3109 0.917455 27.4924 1.76426 28.1241L189.729 168.36C190.585 168.998 190.788 170.196 190.191 171.081L176.757 191" stroke="#AD1D07" stroke-width="2" stroke-linecap="round" stroke-linejoin="round" stroke-dasharray="4 4"/>
</svg>
