<svg width="16" height="16" viewBox="0 0 16 16" fill="none" xmlns="http://www.w3.org/2000/svg">
<g clip-path="url(#clip0_227_1600)">
<path d="M15.6525 7.28234C15.9674 6.97541 16.0786 6.52495 15.9427 6.10621C15.8066 5.68747 15.4519 5.38855 15.0162 5.32511L11.1421 4.7622C10.9771 4.73817 10.8345 4.63468 10.7608 4.48506L9.02883 0.974927C8.83436 0.580534 8.43964 0.335439 7.99975 0.335439C7.56019 0.335439 7.16547 0.580534 6.971 0.974927L5.23868 4.48538C5.16499 4.635 5.0221 4.73849 4.8571 4.76252L0.983006 5.32543C0.547603 5.38855 0.192617 5.68779 0.0564534 6.10653C-0.0793898 6.52527 0.0317837 6.97573 0.346722 7.28266L3.14977 10.0149C3.26927 10.1315 3.32406 10.2994 3.29586 10.4634L2.63459 14.3215C2.57596 14.6611 2.66503 14.9914 2.88481 15.2519C3.22634 15.6578 3.82258 15.7815 4.29931 15.531L7.76395 13.7093C7.90876 13.6333 8.09106 13.634 8.23556 13.7093L11.7005 15.531C11.869 15.6197 12.0488 15.6646 12.2343 15.6646C12.5729 15.6646 12.894 15.514 13.1147 15.2519C13.3348 14.9914 13.4235 14.6605 13.3649 14.3215L12.7033 10.4634C12.6751 10.2991 12.7299 10.1315 12.8494 10.0149L15.6525 7.28234Z" fill="#FFAA2A"/>
</g>
<defs>
<clipPath id="clip0_227_1600">
<rect width="15.36" height="15.36" fill="white" transform="scale(1.04167)"/>
</clipPath>
</defs>
</svg>
