<svg width="16" height="16" viewBox="0 0 16 16" fill="none" xmlns="http://www.w3.org/2000/svg">
<g clip-path="url(#clip0_227_1249)">
<path d="M15.6524 7.28234C15.9674 6.97541 16.0785 6.52495 15.9427 6.10621C15.8065 5.68747 15.4519 5.38855 15.0161 5.32512L11.1421 4.7622C10.9771 4.73817 10.8345 4.63469 10.7608 4.48507L9.02881 0.974942C8.83433 0.580549 8.43962 0.335456 7.99973 0.335456C7.56017 0.335456 7.16545 0.580549 6.97098 0.974942L5.23866 4.48539C5.16497 4.63501 5.02208 4.73849 4.85709 4.76252L0.983003 5.32544C0.547601 5.38855 0.192616 5.68779 0.0564525 6.10653C-0.0793903 6.52527 0.031783 6.97573 0.34672 7.28266L3.14976 10.0149C3.26926 10.1315 3.32405 10.2994 3.29586 10.4634L2.63458 14.3215C2.57595 14.6611 2.66502 14.9914 2.8848 15.2519C3.22633 15.6578 3.82257 15.7815 4.2993 15.5309L7.76393 13.7092C7.90874 13.6333 8.09104 13.634 8.23554 13.7092L11.7005 15.5309C11.869 15.6197 12.0487 15.6645 12.2342 15.6645C12.5729 15.6645 12.8939 15.514 13.1147 15.2519C13.3348 14.9914 13.4235 14.6605 13.3649 14.3215L12.7033 10.4634C12.6751 10.2991 12.7299 10.1315 12.8494 10.0149L15.6524 7.28234Z" fill="#FFAA2A"/>
</g>
<defs>
<clipPath id="clip0_227_1249">
<rect width="15.3388" height="15.3388" fill="white" transform="scale(1.0431)"/>
</clipPath>
</defs>
</svg>
