<svg width="16" height="16" viewBox="0 0 16 16" fill="none" xmlns="http://www.w3.org/2000/svg">
<g clip-path="url(#clip0_225_651)">
<path d="M15.6527 7.28234C15.9676 6.97541 16.0788 6.52495 15.9429 6.10621C15.8068 5.68747 15.4521 5.38855 15.0164 5.32512L11.1423 4.7622C10.9773 4.73817 10.8347 4.63469 10.7611 4.48507L9.02906 0.974942C8.83459 0.580549 8.43987 0.335456 7.99999 0.335456C7.56042 0.335456 7.16571 0.580549 6.97123 0.974942L5.23892 4.48539C5.16523 4.63501 5.02234 4.73849 4.85734 4.76252L0.983258 5.32544C0.547856 5.38855 0.19287 5.68779 0.0567072 6.10653C-0.0791356 6.52527 0.0320376 6.97573 0.346975 7.28266L3.15001 10.0149C3.26952 10.1315 3.3243 10.2994 3.29611 10.4634L2.63484 14.3215C2.57621 14.6611 2.66527 14.9914 2.88506 15.2519C3.22659 15.6578 3.82282 15.7815 4.29955 15.5309L7.76418 13.7092C7.909 13.6333 8.0913 13.634 8.23579 13.7092L11.7007 15.5309C11.8693 15.6197 12.049 15.6645 12.2345 15.6645C12.5731 15.6645 12.8942 15.514 13.1149 15.2519C13.335 14.9914 13.4238 14.6605 13.3651 14.3215L12.7035 10.4634C12.6754 10.2991 12.7301 10.1315 12.8496 10.0149L15.6527 7.28234Z" fill="#FFAA2A"/>
</g>
<defs>
<clipPath id="clip0_225_651">
<rect width="15.3388" height="15.3388" fill="white" transform="scale(1.0431)"/>
</clipPath>
</defs>
</svg>
