<svg width="47" height="47" viewBox="0 0 47 47" fill="none" xmlns="http://www.w3.org/2000/svg">
<circle cx="23.5" cy="23.5" r="23.5" fill="#F9703E"/>
<g clip-path="url(#clip0_225_71)">
<path d="M23.4999 19.9393C21.5416 19.9393 19.9393 21.5416 19.9393 23.4999C19.9393 25.4582 21.5416 27.0605 23.4999 27.0605C25.4582 27.0605 27.0605 25.4582 27.0605 23.4999C27.0605 21.5416 25.4582 19.9393 23.4999 19.9393ZM31.4222 22.6098C30.9772 18.8711 28.0397 15.9336 24.3901 15.5776V13.7083H22.6098V15.5776C18.8711 15.9336 15.9336 18.8711 15.5776 22.6098H13.7083V24.3901H15.5776C16.0226 28.1287 18.9601 31.0662 22.6098 31.4222V33.2916H24.3901V31.4222C28.1287 30.9772 31.0662 28.0397 31.4222 24.3901H33.2916V22.6098H31.4222ZM23.4999 29.731C20.0283 29.731 17.2689 26.9715 17.2689 23.4999C17.2689 20.0283 20.0283 17.2689 23.4999 17.2689C26.9715 17.2689 29.731 20.0283 29.731 23.4999C29.731 26.9715 26.9715 29.731 23.4999 29.731Z" fill="white"/>
</g>
<defs>
<clipPath id="clip0_225_71">
<rect width="19.2" height="19.2" fill="white" transform="translate(13.7083 13.7083) scale(1.01996)"/>
</clipPath>
</defs>
</svg>
