<svg width="29" height="23" viewBox="0 0 29 23" fill="none" xmlns="http://www.w3.org/2000/svg">
<path d="M11.2172 0C9.67132 0.279608 8.13976 1.12803 7.37097 2.57705C6.65385 3.9287 6.60823 5.73541 5.46733 6.70604C4.78627 7.28547 3.86162 7.41947 3.1012 7.87464C2.56088 8.21992 2.12135 8.70155 1.82703 9.27087C1.53271 9.84019 1.39403 10.477 1.42499 11.117C1.48588 12.309 2.11518 13.4194 2.10182 14.613C2.08446 16.1649 1.0103 17.4462 0 18.5694L3.35055 19.1905C3.85683 19.3256 4.38787 19.3397 4.9006 19.2315C5.47933 19.0604 5.94939 18.5844 6.5344 18.4392C7.3733 18.2311 8.20341 18.7408 8.95193 19.1931C11.0826 20.4806 13.3672 21.4523 15.6435 22.4198C16.3132 22.7044 17.0725 22.9893 17.7333 22.6823C18.267 22.4343 18.5989 21.8547 19.1009 21.541C19.9999 20.9793 21.1286 21.4021 22.1388 21.6794C24.4233 22.2988 26.8533 22.092 29 21.0958C28.5372 20.5557 27.9307 20.1781 27.432 19.6753C26.9333 19.1725 26.5298 18.4605 26.6616 17.7444C26.7959 17.0141 27.4244 16.5266 27.8528 15.9373C28.1692 15.4703 28.3893 14.9451 28.5004 14.3923C28.6114 13.8395 28.6111 13.2701 28.4995 12.7174C28.2746 11.6179 27.7393 10.6058 26.9567 9.80074C26.51 9.38302 26.0886 8.93912 25.6947 8.47138C24.9065 7.40802 24.7113 6.00025 24.4592 4.67453C24.207 3.34882 23.8089 1.93794 22.7854 1.1307C21.1547 -0.155338 18.5067 0.283026 16.6004 0.155378C14.7829 0.0336644 13.0305 0 11.2172 0Z" fill="#2F2E41"/>
</svg>
