<svg width="24" height="24" viewBox="0 0 24 24" fill="none" xmlns="http://www.w3.org/2000/svg">
<g clip-path="url(#clip0_225_732)">
<path d="M23.4123 2.9876C23.0207 2.59598 22.5499 2.40019 22 2.40019H1.99998C1.45 2.40019 0.979303 2.59594 0.587415 2.9876C0.195747 3.37932 0 3.85001 0 4.40004V19.5998C0 20.1499 0.195747 20.6206 0.587415 21.0123C0.979303 21.404 1.45 21.5998 1.99998 21.5998H22C22.5499 21.5998 23.0206 21.404 23.4123 21.0123C23.8039 20.6207 23.9999 20.15 23.9999 19.5998V4.40004C23.9999 3.85001 23.8039 3.37932 23.4123 2.9876ZM22.3998 19.6001C22.3998 19.7085 22.3602 19.802 22.2811 19.8814C22.202 19.9602 22.1082 19.9998 22 19.9998H1.99998C1.89171 19.9998 1.79793 19.9603 1.71877 19.8811C1.63966 19.8018 1.60004 19.7082 1.60004 19.5998V12H22.3998V19.6001H22.3998ZM22.3998 7.19986H1.59999V4.39986C1.59999 4.29155 1.63948 4.19799 1.71873 4.11865C1.79793 4.03972 1.89171 4.00009 1.99994 4.00009H21.9999C22.1081 4.00009 22.2019 4.03954 22.281 4.11865C22.3602 4.19799 22.3997 4.29155 22.3997 4.39986V7.19986H22.3998Z" fill="white"/>
<path d="M6.40011 16.7998H3.20017V18.3999H6.40011V16.7998Z" fill="white"/>
<path d="M12.8001 16.7998H8.00017V18.3999H12.8001V16.7998Z" fill="white"/>
</g>
<defs>
<clipPath id="clip0_225_732">
<rect width="23.1286" height="23.1286" fill="white" transform="scale(1.03767)"/>
</clipPath>
</defs>
</svg>
