<svg width="20" height="20" viewBox="0 0 20 20" fill="none" xmlns="http://www.w3.org/2000/svg">
<g clip-path="url(#clip0_204_374)">
<path d="M14.3648 6.14954C13.791 5.90997 13.6253 5.7651 13.6253 5.50348C13.6253 5.29412 13.7775 5.04953 14.2067 5.04953C14.5863 5.04953 14.8775 5.20545 14.8801 5.20681C14.9107 5.22383 14.9451 5.2329 14.9791 5.2329C15.0622 5.2329 15.1356 5.18054 15.1661 5.09948L15.2704 4.8218C15.3067 4.72061 15.2516 4.63245 15.1814 4.60082C14.9477 4.49485 14.4909 4.41283 14.4862 4.41198C14.4788 4.41063 14.4533 4.40494 14.4533 4.37376L14.4518 3.97094C14.4518 3.84963 14.3545 3.75087 14.2352 3.75087H14.0481C13.9288 3.75087 13.8316 3.84957 13.8316 3.971L13.8321 4.39451C13.8321 4.42698 13.7983 4.44107 13.786 4.44406C13.2094 4.58713 12.849 5.0271 12.849 5.58206C12.849 6.2739 13.3981 6.58653 13.9908 6.8212C14.4647 7.015 14.658 7.21151 14.658 7.49973C14.658 7.81337 14.3843 8.03243 13.992 8.03243C13.6571 8.03243 13.2038 7.81129 13.1993 7.80903C13.1703 7.79472 13.1396 7.7875 13.108 7.7875C13.0217 7.7875 12.9466 7.84184 12.9166 7.926L12.817 8.20684C12.7816 8.31169 12.8361 8.39681 12.9059 8.43469C13.1842 8.58571 13.7229 8.67421 13.7469 8.6781C13.7533 8.67906 13.7861 8.69106 13.7861 8.72229V9.14394C13.7861 9.26525 13.8834 9.36401 14.0028 9.36401H14.1961C14.3156 9.36401 14.4128 9.26531 14.4128 9.14394V8.70019C14.4128 8.65871 14.4422 8.65504 14.4483 8.65352C15.0625 8.50977 15.4409 8.04162 15.4409 7.45379C15.4408 6.85 15.1189 6.45986 14.3648 6.14954Z" fill="white"/>
<path d="M14.1232 1.26883C11.3191 1.26883 9.04614 3.63667 9.04614 6.55739C9.04614 9.47817 11.3191 11.8461 14.1232 11.8461C16.9271 11.8461 19.2001 9.47817 19.2001 6.55739C19.2001 3.63667 16.9271 1.26883 14.1232 1.26883ZM14.1232 10.6204C11.9689 10.6204 10.2227 8.80127 10.2227 6.55745C10.2227 4.31362 11.9689 2.49455 14.1232 2.49455C16.2773 2.49455 18.0234 4.31362 18.0234 6.55745C18.0234 8.80127 16.2773 10.6204 14.1232 10.6204Z" fill="white"/>
<path d="M18.1683 14.4088C17.0887 15.0295 15.6038 15.6034 14.123 15.8454C12.8055 16.0606 10.3269 15.5415 10.3269 14.9285C10.3269 14.6962 12.5007 15.5009 13.8157 15.1355C14.824 14.8552 14.6809 13.8727 14.1324 13.7431C13.5872 13.6142 10.3926 12.3951 9.0281 12.3531C8.38531 12.3333 6.79837 12.5859 6.03047 12.7162C5.76742 12.7608 5.60247 12.7559 5.58602 13.0181C5.50961 14.2369 5.35901 16.7291 5.27691 18.0309C5.27518 18.0584 5.31187 18.4283 5.60491 18.168C5.92565 17.8831 6.37551 17.5673 6.79161 17.6656C7.4444 17.8199 13.092 18.8977 13.871 18.7091C14.9854 18.4392 18.14 16.4918 18.7449 15.8865C19.6824 14.9481 18.9536 13.9574 18.1683 14.4088Z" fill="white"/>
<path d="M4.02763 12.6687L1.06902 12.5168C0.840595 12.5051 0.607303 12.6844 0.550535 12.9152L0.0125719 18.0029C-0.0441412 18.2336 0.0964511 18.43 0.324981 18.4392L3.60385 18.4389C3.83243 18.4481 4.03363 18.2613 4.05117 18.0237L4.41125 13.1219C4.42868 12.8844 4.25605 12.6804 4.02763 12.6687ZM2.28586 17.7649C1.83405 17.7649 1.46785 17.3834 1.46785 16.9128C1.46785 16.4421 1.8341 16.0607 2.28586 16.0607C2.73762 16.0607 3.10387 16.4422 3.10387 16.9128C3.10387 17.3834 2.73767 17.7649 2.28586 17.7649Z" fill="white"/>
</g>
<defs>
<clipPath id="clip0_204_374">
<rect width="19.2" height="20" fill="white"/>
</clipPath>
</defs>
</svg>
