<svg width="39" height="39" viewBox="0 0 39 39" fill="none" xmlns="http://www.w3.org/2000/svg">
<rect width="39" height="39" rx="4" fill="white"/>
<g clip-path="url(#clip0_227_1445)">
<path d="M25.3073 14.995C24.6081 14.7147 24.4061 14.5452 24.4061 14.2391C24.4061 13.9942 24.5916 13.708 25.1147 13.708C25.5773 13.708 25.9322 13.8904 25.9353 13.892C25.9727 13.9119 26.0146 13.9225 26.056 13.9225C26.1573 13.9225 26.2468 13.8613 26.284 13.7664L26.4111 13.4415C26.4553 13.3231 26.3882 13.22 26.3026 13.183C26.0177 13.059 25.461 12.963 25.4553 12.962C25.4464 12.9605 25.4152 12.9538 25.4152 12.9173L25.4134 12.446C25.4134 12.3041 25.2949 12.1885 25.1494 12.1885H24.9214C24.776 12.1885 24.6576 12.304 24.6576 12.4461L24.6582 12.9416C24.6582 12.9796 24.617 12.9961 24.602 12.9996C23.8992 13.167 23.46 13.6817 23.46 14.331C23.46 15.1405 24.1291 15.5063 24.8516 15.7808C25.4291 16.0076 25.6647 16.2375 25.6647 16.5747C25.6647 16.9417 25.3311 17.198 24.853 17.198C24.4449 17.198 23.8924 16.9392 23.887 16.9366C23.8516 16.9198 23.8141 16.9114 23.7756 16.9114C23.6705 16.9114 23.579 16.975 23.5424 17.0734L23.421 17.402C23.3779 17.5247 23.4443 17.6243 23.5293 17.6686C23.8686 17.8453 24.5251 17.9488 24.5543 17.9534C24.5621 17.9545 24.6021 17.9686 24.6021 18.0051V18.4984C24.6021 18.6404 24.7206 18.7559 24.8662 18.7559H25.1018C25.2474 18.7559 25.3659 18.6404 25.3659 18.4984V17.9793C25.3659 17.9307 25.4017 17.9264 25.4091 17.9246C26.1577 17.7565 26.6189 17.2087 26.6189 16.521C26.6187 15.8145 26.2264 15.3581 25.3073 14.995Z" fill="#0F263D"/>
<path d="M25.0129 9.28456C21.5954 9.28456 18.8253 12.0549 18.8253 15.4722C18.8253 18.8895 21.5954 21.6599 25.0129 21.6599C28.4302 21.6599 31.2004 18.8895 31.2004 15.4722C31.2004 12.0549 28.4302 9.28456 25.0129 9.28456ZM25.0129 20.2259C22.3874 20.2259 20.2592 18.0975 20.2592 15.4722C20.2592 12.847 22.3874 10.7186 25.0129 10.7186C27.6382 10.7186 29.7663 12.847 29.7663 15.4722C29.7663 18.0975 27.6382 20.2259 25.0129 20.2259Z" fill="#0F263D"/>
<path d="M29.9431 24.6583C28.6273 25.3846 26.8176 26.056 25.0129 26.3391C23.4072 26.5909 20.3864 25.9836 20.3864 25.2664C20.3864 24.9946 23.0357 25.9361 24.6383 25.5085C25.8673 25.1806 25.6928 24.0311 25.0244 23.8794C24.3598 23.7286 20.4665 22.3023 18.8035 22.2531C18.0201 22.2299 16.086 22.5255 15.1501 22.678C14.8295 22.7301 14.6285 22.7244 14.6084 23.0312C14.5153 24.4571 14.3318 27.373 14.2317 28.8962C14.2296 28.9284 14.2743 29.3611 14.6314 29.0566C15.0224 28.7232 15.5706 28.3538 16.0777 28.4688C16.8733 28.6493 23.7563 29.9103 24.7057 29.6896C26.0639 29.3739 29.9086 27.0954 30.6458 26.3872C31.7884 25.2892 30.9002 24.1301 29.9431 24.6583Z" fill="#0F263D"/>
<path d="M12.7088 22.6223L9.10304 22.4447C8.82465 22.431 8.54032 22.6407 8.47114 22.9107L7.8155 28.8633C7.74638 29.1333 7.91772 29.3631 8.19624 29.3739L12.1924 29.3735C12.4709 29.3842 12.7162 29.1657 12.7375 28.8877L13.1764 23.1525C13.1976 22.8747 12.9872 22.6361 12.7088 22.6223ZM10.5861 28.5849C10.0354 28.5849 9.58911 28.1385 9.58911 27.5879C9.58911 27.0373 10.0355 26.591 10.5861 26.591C11.1366 26.591 11.583 27.0373 11.583 27.5879C11.583 28.1386 11.1367 28.5849 10.5861 28.5849Z" fill="#0F263D"/>
</g>
<defs>
<clipPath id="clip0_227_1445">
<rect width="23.04" height="23.04" fill="white" transform="translate(7.80017 7.79999) scale(1.01562)"/>
</clipPath>
</defs>
</svg>
