<svg width="24" height="24" viewBox="0 0 24 24" fill="none" xmlns="http://www.w3.org/2000/svg">
<g clip-path="url(#clip0_215_1558)">
<path d="M3.26313 22.0956C3.26313 22.0956 3.24181 22.6321 3.76587 22.6321C4.41783 22.6321 9.81561 22.625 9.81561 22.625L9.82449 17.6678C9.82449 17.6678 9.73922 16.8506 10.5324 16.8506H13.0425C13.9805 16.8506 13.9228 17.6678 13.9228 17.6678L13.9121 22.609C13.9121 22.609 19.0301 22.609 19.834 22.609C20.4992 22.609 20.469 21.9411 20.469 21.9411V12.8021L12.1232 5.37823L3.26313 12.8021C3.26313 12.8021 3.26313 22.0956 3.26313 22.0956Z" fill="white"/>
<path d="M0 12.111C0 12.111 0.752332 13.4976 2.39289 12.111L12.1972 3.81672L21.3895 12.0595C23.2885 13.4292 24 12.0595 24 12.0595L12.1972 1.36787L0 12.111Z" fill="white"/>
<path d="M21.1668 3.79719H18.8023L18.8121 6.6644L21.1668 8.66203V3.79719Z" fill="white"/>
</g>
<defs>
<clipPath id="clip0_215_1558">
<rect width="23.1286" height="23.1286" fill="white" transform="scale(1.03768)"/>
</clipPath>
</defs>
</svg>
