<svg width="15" height="15" viewBox="0 0 15 15" fill="none" xmlns="http://www.w3.org/2000/svg">
<path d="M14.8549 0.845428C15.0483 0.652024 15.0483 0.338454 14.8549 0.14505V0.14505C14.6615 -0.0483534 14.3479 -0.0483533 14.1545 0.145051L7.49997 6.79962L0.845397 0.145051C0.651993 -0.048353 0.338423 -0.0483533 0.145019 0.145051V0.145051C-0.0483847 0.338454 -0.0483846 0.652024 0.145019 0.845428L6.79959 7.5L0.14502 14.1546C-0.0483843 14.348 -0.0483847 14.6615 0.145019 14.8549V14.8549C0.338423 15.0484 0.651993 15.0484 0.845396 14.8549L7.49997 8.20038L14.1545 14.8549C14.3479 15.0484 14.6615 15.0484 14.8549 14.8549V14.8549C15.0483 14.6615 15.0483 14.348 14.8549 14.1546L8.20035 7.5L14.8549 0.845428Z" fill="#343B70"/>
</svg>
