<svg width="16" height="16" viewBox="0 0 16 16" fill="none" xmlns="http://www.w3.org/2000/svg">
<g clip-path="url(#clip0_208_806)">
<path d="M15.6527 7.27851C15.9676 6.97174 16.0788 6.52152 15.943 6.10299C15.8068 5.68447 15.4521 5.38571 15.0164 5.32231L11.1423 4.75969C10.9773 4.73567 10.8348 4.63224 10.7611 4.4827L9.02907 0.974417C8.83459 0.580231 8.43988 0.335266 7.99999 0.335266C7.56043 0.335266 7.16571 0.580231 6.97124 0.974417L5.23892 4.48302C5.16523 4.63256 5.02234 4.73599 4.85734 4.76001L0.983258 5.32263C0.547856 5.38571 0.19287 5.68479 0.0567071 6.10331C-0.0791358 6.52184 0.0320375 6.97206 0.346975 7.27883L3.15002 10.0096C3.26952 10.1262 3.32431 10.294 3.29611 10.4579L2.63484 14.314C2.57621 14.6534 2.66528 14.9835 2.88506 15.2439C3.22659 15.6496 3.82282 15.7732 4.29956 15.5228L7.76419 13.702C7.909 13.6261 8.0913 13.6268 8.2358 13.702L11.7008 15.5228C11.8693 15.6115 12.049 15.6563 12.2345 15.6563C12.5732 15.6563 12.8942 15.5058 13.1149 15.2439C13.335 14.9835 13.4238 14.6528 13.3651 14.314L12.7036 10.4579C12.6754 10.2937 12.7301 10.1262 12.8496 10.0096L15.6527 7.27851Z" fill="#FFAA2A"/>
</g>
<defs>
<clipPath id="clip0_208_806">
<rect width="15.3308" height="15.3227" fill="white" transform="scale(1.04365)"/>
</clipPath>
</defs>
</svg>
