<svg width="24" height="24" viewBox="0 0 24 24" fill="none" xmlns="http://www.w3.org/2000/svg">
<g clip-path="url(#clip0_227_1414)">
<path d="M23 5.00004H0.999999C0.447715 5.00004 0 5.44776 0 6.00004C0 6.55232 0.447716 7.00004 1 7.00004H23C23.5522 7.00004 24 6.55232 24 6.00004C24 5.44776 23.5522 5.00004 23 5.00004Z" fill="white"/>
<path d="M19.9998 11H3.99987C3.44759 11 2.99987 11.4478 2.99987 12C2.99987 12.5523 3.44758 13 3.99987 13H19.9998C20.5521 13 20.9998 12.5523 20.9998 12C20.9998 11.4478 20.5521 11 19.9998 11Z" fill="white"/>
<path d="M16.0002 17H8.00021C7.44793 17 7.00021 17.4478 7.00021 18C7.00021 18.5523 7.44793 19 8.00021 19H16.0002C16.5525 19 17.0002 18.5523 17.0002 18C17.0002 17.4478 16.5525 17 16.0002 17Z" fill="white"/>
</g>
<defs>
<clipPath id="clip0_227_1414">
<rect width="23.04" height="23.04" fill="white" transform="scale(1.04166)"/>
</clipPath>
</defs>
</svg>
