<svg width="27" height="32" viewBox="0 0 27 32" fill="none" xmlns="http://www.w3.org/2000/svg">
<path d="M26.9481 6.18676C26.9481 6.18676 25.6709 -0.405585 23.1164 0.019729C20.5619 0.445043 15.453 0.870349 14.8144 1.29566C14.1757 1.72098 10.7698 2.59256 10.7698 2.59256C10.7698 2.59256 12.047 1.08301 10.7698 0.870352C9.49252 0.657695 5.44793 1.72098 5.02218 2.57161C4.59644 3.42223 2.89344 5.12348 2.89344 8.10066C2.89344 11.0779 1.6162 16.1816 2.04194 18.3082C2.46769 20.4347 1.82907 25.3258 0.55183 28.0904C-0.72541 30.8549 0.338957 33.6194 2.46769 30.8549C4.59642 28.0904 3.53206 30.8549 5.23504 31.0676C6.93803 31.2802 14.6015 23.4119 16.7302 25.3258C18.8589 27.2398 20.9877 28.5157 21.4134 27.4524C21.8392 26.3891 19.7104 24.4752 19.7104 23.6246C19.7104 22.774 16.3044 26.3891 19.9233 18.9461C23.5421 11.5032 20.1362 9.3766 26.9481 6.18676Z" fill="#FFAA2A"/>
</svg>
