<svg width="24" height="24" viewBox="0 0 24 24" fill="none" xmlns="http://www.w3.org/2000/svg">
<g clip-path="url(#clip0_215_1565)">
<path d="M23.4124 2.98759C23.0207 2.59596 22.55 2.40017 22.0001 2.40017H1.99999C1.45 2.40017 0.979306 2.59592 0.587417 2.98759C0.195747 3.3793 0 3.85 0 4.40003V19.5998C0 20.1499 0.195747 20.6207 0.587417 21.0124C0.979306 21.404 1.45 21.5999 1.99999 21.5999H22.0001C22.55 21.5999 23.0207 21.404 23.4124 21.0124C23.804 20.6207 24 20.15 24 19.5998V4.40003C24 3.85 23.804 3.3793 23.4124 2.98759ZM22.3998 19.6001C22.3998 19.7086 22.3603 19.8021 22.2811 19.8815C22.202 19.9603 22.1082 19.9998 22.0001 19.9998H1.99999C1.89171 19.9998 1.79793 19.9603 1.71878 19.8812C1.63966 19.8018 1.60004 19.7083 1.60004 19.5998V12H22.3999V19.6001H22.3998ZM22.3998 7.19985H1.6V4.39985C1.6 4.29154 1.63949 4.19797 1.71873 4.11864C1.79793 4.0397 1.89171 4.00008 1.99994 4.00008H22C22.1082 4.00008 22.202 4.03953 22.2811 4.11864C22.3602 4.19797 22.3998 4.29154 22.3998 4.39985V7.19985H22.3998Z" fill="white"/>
<path d="M6.40013 16.7998H3.20018V18.4H6.40013V16.7998Z" fill="white"/>
<path d="M12.7999 16.7998H7.99994V18.4H12.7999V16.7998Z" fill="white"/>
</g>
<defs>
<clipPath id="clip0_215_1565">
<rect width="23.1286" height="23.1286" fill="white" transform="scale(1.03768)"/>
</clipPath>
</defs>
</svg>
