<svg width="50" height="119" viewBox="0 0 50 119" fill="none" xmlns="http://www.w3.org/2000/svg">
<g opacity="0.3">
<path opacity="0.3" d="M6.94002 118.973C6.6468 113.482 11.8694 109.388 16.8014 106.945C21.7335 104.502 27.4152 102.219 29.6895 97.2113C32.9582 90.0135 27.366 82.2077 23.0953 75.5543C19.927 70.6168 17.3557 65.3216 15.4352 59.7795C14.6655 57.5573 13.9952 55.2533 14.0429 52.9024C14.1116 49.5167 15.6514 46.3558 17.1798 43.3332C22.2713 33.264 27.5989 23.3186 33.1623 13.497" stroke="#0F263D" stroke-miterlimit="10"/>
<path opacity="0.3" d="M39.5829 2.29898L34.2137 3.83147L34.5866 1.34837C34.1139 1.31799 33.6341 1.30082 33.1471 1.30082C26.1517 1.30082 20.4809 4.52096 20.4809 8.49321C20.4809 12.4655 26.1517 15.6856 33.1471 15.6856C40.1424 15.6856 45.8133 12.4655 45.8133 8.49321C45.8133 5.85552 43.3113 3.55078 39.5829 2.29898Z" fill="#0F263D"/>
<path opacity="0.3" d="M39.5829 1.49986L34.2137 3.03235L34.5866 0.549254C34.1139 0.518865 33.6341 0.501697 33.1471 0.501697C26.1517 0.501697 20.4809 3.72184 20.4809 7.69408C20.4809 11.6663 26.1517 14.8865 33.1471 14.8865C40.1424 14.8865 45.8133 11.6663 45.8133 7.69408C45.8133 5.0564 43.3113 2.75166 39.5829 1.49986Z" stroke="#0F263D" stroke-miterlimit="10"/>
<path opacity="0.3" d="M23.8505 93.669L18.4813 95.2015L18.8541 92.7184C18.3814 92.688 17.9017 92.6708 17.4147 92.6708C10.4193 92.6708 4.74849 95.8909 4.74849 99.8632C4.74849 103.835 10.4193 107.056 17.4147 107.056C24.41 107.056 30.0809 103.835 30.0809 99.8632C30.0809 97.2255 27.5789 94.9208 23.8505 93.669Z" fill="#0F263D"/>
<path opacity="0.3" d="M23.8505 92.8698L18.4813 94.4023L18.8541 91.9192C18.3814 91.8888 17.9017 91.8717 17.4147 91.8717C10.4193 91.8717 4.74849 95.0918 4.74849 99.0641C4.74849 103.036 10.4193 106.256 17.4147 106.256C24.41 106.256 30.0809 103.036 30.0809 99.0641C30.0809 96.4264 27.5789 94.1216 23.8505 92.8698Z" stroke="#0F263D" stroke-miterlimit="10"/>
<path opacity="0.3" d="M42.5162 74.4893L37.147 76.0218L37.5198 73.5387C37.0471 73.5083 36.5674 73.4912 36.0804 73.4912C29.085 73.4912 23.4142 76.7113 23.4142 80.6836C23.4142 84.6558 29.085 87.876 36.0804 87.876C43.0757 87.876 48.7465 84.6558 48.7465 80.6836C48.7465 78.0459 46.2445 75.7411 42.5162 74.4893Z" fill="#0F263D"/>
<path opacity="0.3" d="M42.5162 73.6901L37.147 75.2226L37.5198 72.7395C37.0471 72.7091 36.5674 72.692 36.0804 72.692C29.085 72.692 23.4142 75.9121 23.4142 79.8843C23.4142 83.8566 29.085 87.0767 36.0804 87.0767C43.0757 87.0767 48.7465 83.8566 48.7465 79.8843C48.7465 77.2467 46.2445 74.9419 42.5162 73.6901Z" stroke="#0F263D" stroke-miterlimit="10"/>
<path opacity="0.3" d="M20.445 25.5466L14.9626 24.487L16.4195 22.441C16.0117 22.2002 15.5916 21.9681 15.1573 21.7481C8.91853 18.587 2.40293 18.8962 0.604252 22.4388C-1.19442 25.9814 2.40495 31.4159 8.64368 34.577C14.8824 37.7381 21.398 37.4289 23.1967 33.8863C24.3911 31.5338 23.2033 28.3478 20.445 25.5466Z" fill="#0F263D"/>
<path opacity="0.3" d="M20.8066 24.8338L15.3242 23.7743L16.7811 21.7282C16.3733 21.4875 15.9532 21.2554 15.5188 21.0353C9.2801 17.8742 2.7645 18.1835 0.965824 21.7261C-0.832848 25.2687 2.76654 30.7031 9.00526 33.8643C15.244 37.0254 21.7596 36.7161 23.5583 33.1735C24.7526 30.8211 23.5649 27.635 20.8066 24.8338Z" stroke="#0F263D" stroke-miterlimit="10"/>
<path opacity="0.3" d="M32.4446 53.5169L26.9622 52.4574L28.4191 50.4114C28.0113 50.1706 27.5912 49.9385 27.1568 49.7185C20.9181 46.5573 14.4025 46.8666 12.6038 50.4092C10.8052 53.9518 14.4045 59.3863 20.6432 62.5474C26.882 65.7085 33.3976 65.3992 35.1963 61.8566C36.3907 59.5042 35.2029 56.3181 32.4446 53.5169Z" fill="#0F263D"/>
<path opacity="0.3" d="M32.8067 52.8042L27.3243 51.7446L28.7812 49.6986C28.3734 49.4579 27.9533 49.2258 27.5189 49.0057C21.2802 45.8446 14.7646 46.1539 12.9659 49.6965C11.1672 53.2391 14.7666 58.6735 21.0053 61.8346C27.2441 64.9957 33.7597 64.6864 35.5584 61.1438C36.7528 58.7914 35.565 55.6054 32.8067 52.8042Z" stroke="#0F263D" stroke-miterlimit="10"/>
</g>
</svg>
