<svg width="16" height="16" viewBox="0 0 16 16" fill="none" xmlns="http://www.w3.org/2000/svg">
<g clip-path="url(#clip0_228_1766)">
<path d="M15.4688 14.5687L11.7876 10.8875C12.7001 9.77497 13.2501 8.34997 13.2501 6.79684C13.2501 3.23434 10.3595 0.343707 6.79696 0.343707C3.23134 0.343707 0.343832 3.23434 0.343832 6.79684C0.343832 10.3593 3.23134 13.25 6.79696 13.25C8.35009 13.25 9.77197 12.7031 10.8845 11.7906L14.5657 15.4687C14.8157 15.7187 15.2188 15.7187 15.4688 15.4687C15.7189 15.2218 15.7189 14.8156 15.4688 14.5687ZM6.79696 11.9656C3.94384 11.9656 1.62508 9.64684 1.62508 6.79684C1.62508 3.94684 3.94384 1.62496 6.79696 1.62496C9.64697 1.62496 11.9688 3.94684 11.9688 6.79684C11.9688 9.64684 9.64697 11.9656 6.79696 11.9656Z" fill="white"/>
</g>
<defs>
<clipPath id="clip0_228_1766">
<rect width="15.5645" height="15.5645" fill="white" transform="scale(1.02798)"/>
</clipPath>
</defs>
</svg>
