<svg width="276" height="205" viewBox="0 0 276 205" fill="none" xmlns="http://www.w3.org/2000/svg">
<g clip-path="url(#clip0_225_313)">
<path d="M106.838 196.608C161.267 196.608 205.39 152.596 205.39 98.3041C205.39 44.0122 161.267 0 106.838 0C52.4083 0 8.28467 44.0122 8.28467 98.3041C8.28467 152.596 52.4083 196.608 106.838 196.608Z" fill="#0F263D"/>
<path d="M53.0485 36.3895L51.0078 52.8499C53.5126 57.7397 56.1657 63.2986 58.696 69.2948L63.5017 44.4742L63.7446 44.6952C60.231 41.1491 56.535 38.2624 52.8017 36.1912L53.0485 36.3895Z" fill="#C52707"/>
<path d="M50.5669 51.993L52.5439 36.0483C48.3442 33.7617 44.1016 32.5124 40.0219 32.5348C39.8097 32.536 39.6 32.5433 39.3906 32.5513C40.21 33.8006 44.9701 41.1654 50.5669 51.993Z" fill="#C52707"/>
<path d="M83.2271 77.6749L83.447 77.971C82.7167 75.7557 81.9118 73.5856 81.0322 71.4606L68.6388 99.1542L68.533 99.0229C68.8466 100.385 69.1355 101.735 69.3998 103.071L83.2271 77.6749Z" fill="#C52707"/>
<path d="M74.8351 59.272L75.0693 59.5357C71.9658 54.2525 68.2459 49.3546 63.9874 44.9443L59.0898 70.2378C61.4356 75.8686 63.457 81.365 65.1541 86.7271L74.8351 59.272Z" fill="#C52707"/>
<path d="M19.93 57.9763C19.6042 62.3256 19.7197 66.6966 20.2748 71.0227L63.4987 83.1295C61.9328 78.508 60.2474 74.1349 58.5706 70.125L19.9822 58.3406L19.93 57.9763Z" fill="#C52707"/>
<path d="M21.0559 76.0358L20.997 75.671L64.8532 87.2907C64.4969 86.1481 64.1322 85.0185 63.7589 83.9018L20.3755 71.7504L20.3191 71.3854C20.5136 72.91 20.7592 74.4602 21.0559 76.0358Z" fill="#C52707"/>
<path d="M80.6352 70.7704L80.8623 71.052C79.2537 67.2074 77.3868 63.4755 75.2745 59.8817L65.4626 87.7082C66.5739 91.2901 67.5348 94.7984 68.3451 98.2331L80.6352 70.7704Z" fill="#C52707"/>
<path d="M71.4058 118.487C71.8534 126.432 71.2736 133.772 69.6663 140.424C73.0732 135.559 86.3413 115.261 86.3383 94.2128L71.4058 118.487Z" fill="#C52707"/>
<path d="M26.5527 92.89C28.3614 96.4624 30.408 99.9099 32.6787 103.209L32.6375 102.808L70.8497 117.761C70.5575 113.317 69.9983 108.895 69.1751 104.518L26.5527 92.89Z" fill="#C52707"/>
<path d="M50.1787 52.2007C44.1204 40.4876 39.0587 32.872 38.9858 32.7629L39.1256 32.5623C32.9338 32.8854 28.027 36.2045 24.6992 41.6587L50.1787 52.2007Z" fill="#C52707"/>
<path d="M69.5981 104.106C69.677 104.521 69.7582 104.938 69.8322 105.35C70.5493 109.302 71.0501 113.291 71.3324 117.298L86.1233 93.2542L86.3317 93.5498C86.3002 89.8443 85.7981 86.1576 84.8375 82.5779C84.4537 81.1731 84.038 79.783 83.5904 78.4076L69.5981 104.106Z" fill="#C52707"/>
<path d="M58.2343 69.3256C55.7286 63.3993 53.1049 57.9068 50.6285 53.0743L24.5645 42.2902L24.5316 41.9329C22.0686 46.089 20.5037 51.4463 19.9602 57.6372L58.2343 69.3256Z" fill="#C52707"/>
<path d="M70.8927 118.467L32.9602 103.623C46.5709 123.411 67.4667 140.388 68.8018 141.464C70.7828 134.119 71.3281 126.319 70.8927 118.467Z" fill="#C52707"/>
<path d="M69.0169 103.774L69.0301 103.75C67.9999 98.4514 66.6843 93.212 65.0891 88.0545L21.125 76.4061C21.5365 78.539 22.0429 80.7103 22.6443 82.92C23.5315 86.0734 24.7053 89.1395 26.1509 92.0802L69.0169 103.774Z" fill="#C52707"/>
<path d="M127.159 105.78L115.062 117.16C113.864 122.519 112.353 128.488 110.468 134.716L130.04 118.657L130.086 118.982C129.647 114.015 128.646 109.441 127.096 105.47L127.159 105.78Z" fill="#C52707"/>
<path d="M115.27 116.219L126.988 105.196C125.216 100.763 122.747 97.1019 119.591 94.5237C119.426 94.3895 119.26 94.2618 119.094 94.1347C118.926 95.6182 117.883 104.319 115.27 116.219Z" fill="#C52707"/>
<path d="M124.003 156.777L123.983 157.145C124.837 154.975 125.605 152.791 126.286 150.595L99.0327 164.04L99.0351 163.871C98.4054 165.12 97.7651 166.343 97.1143 167.54L124.003 156.777Z" fill="#C52707"/>
<path d="M129.307 137.265L129.318 137.617C130.306 131.573 130.573 125.434 130.113 119.328L110.168 135.693C108.374 141.522 106.417 147.042 104.295 152.251L129.307 137.265Z" fill="#C52707"/>
<path d="M87.8483 101.336C84.8162 104.478 82.1102 107.918 79.7715 111.604L105.321 148.427C107.07 143.872 108.568 139.431 109.841 135.276L87.6554 101.65L87.8483 101.336Z" fill="#C52707"/>
<path d="M77.1675 115.961L77.3554 115.643L103.703 152.494C104.159 151.387 104.601 150.285 105.027 149.188L79.3837 112.228L79.5736 111.911C78.7485 113.209 77.9465 114.559 77.1675 115.961Z" fill="#C52707"/>
<path d="M126.422 149.811L126.416 150.172C127.636 146.188 128.584 142.126 129.255 138.014L103.905 153.203C102.471 156.669 100.968 159.982 99.3955 163.143L126.422 149.811Z" fill="#C52707"/>
<path d="M88.8022 180.689C84.0664 187.094 78.9265 192.378 73.4351 196.479C79.1697 194.899 102.368 187.707 115.824 171.494L88.8022 180.689Z" fill="#C52707"/>
<path d="M70.624 132.439C69.7327 136.342 69.1045 140.299 68.7437 144.285L68.9685 143.949L88.8375 179.777C91.454 176.169 93.8512 172.407 96.0161 168.512L70.624 132.439Z" fill="#C52707"/>
<path d="M114.838 116.132C117.662 103.256 118.633 94.1707 118.647 94.0403L118.883 93.9747C113.907 90.2843 108.006 89.7189 101.955 91.8025L114.838 116.132Z" fill="#C52707"/>
<path d="M96.6052 168.464C96.4005 168.834 96.1969 169.206 95.9903 169.571C94.0152 173.071 91.8505 176.462 89.5059 179.727L116.272 170.619L116.243 170.979C118.589 168.105 120.559 164.947 122.108 161.578C122.711 160.252 123.28 158.917 123.814 157.573L96.6052 168.464Z" fill="#C52707"/>
<path d="M110.092 134.446C111.952 128.288 113.443 122.388 114.626 117.091L101.447 92.203L101.651 91.907C97.096 93.5409 92.4652 96.6715 88.0879 101.094L110.092 134.446Z" fill="#C52707"/>
<path d="M88.4193 180.348L68.6959 144.783C66.5257 168.682 71.7639 195.052 72.1044 196.73C78.3264 192.333 83.7342 186.672 88.4193 180.348Z" fill="#C52707"/>
<path d="M96.3696 167.838L96.3953 167.828C98.99 163.092 101.327 158.219 103.396 153.232L76.9838 116.291C75.9369 118.195 74.9386 120.19 73.9888 122.274C72.6557 125.267 71.5992 128.375 70.8323 131.56L96.3696 167.838Z" fill="#C52707"/>
<path d="M26.0825 106.347L29.2425 122.63C33.1399 126.508 37.3857 130.977 41.6501 135.899L38.5291 110.813L38.8286 110.948C34.3882 108.659 29.9787 107.053 25.7864 106.234L26.0825 106.347Z" fill="#C52707"/>
<path d="M28.5576 121.951L25.4968 106.178C20.7942 105.298 16.3722 105.418 12.4994 106.697C12.2979 106.764 12.1007 106.835 11.9041 106.907C13.0705 107.843 19.8797 113.379 28.5576 121.951Z" fill="#C52707"/>
<path d="M67.5768 136.306L67.8777 136.52C66.4968 134.638 65.0588 132.822 63.5637 131.073L60.3589 161.231L60.2175 161.139C60.938 162.338 61.6309 163.532 62.2964 164.721L67.5768 136.306Z" fill="#C52707"/>
<path d="M53.8929 121.391L54.1973 121.57C49.6087 117.502 44.5532 113.991 39.1365 111.11L42.3167 136.675C46.2925 141.307 49.9181 145.911 53.1937 150.487L53.8929 121.391Z" fill="#C52707"/>
<path d="M1.27515 137.087C2.313 141.324 3.77733 145.445 5.64584 149.389L50.5047 147.576C47.5834 143.663 44.6254 140.024 41.7881 136.728L1.43767 137.418L1.27515 137.087Z" fill="#C52707"/>
<path d="M7.94211 153.915L7.77303 153.586L53.0823 151.116C52.3894 150.139 51.6925 149.177 50.9915 148.23L5.96702 150.05L5.80029 149.72C6.45777 151.11 7.17171 152.508 7.94211 153.915Z" fill="#C52707"/>
<path d="M62.9722 130.539L63.2754 130.736C60.5542 127.576 57.6224 124.602 54.4998 121.836L53.7913 151.325C55.9581 154.389 57.959 157.429 59.7941 160.446L62.9722 130.539Z" fill="#C52707"/>
<path d="M68.9812 178.764C71.869 186.182 73.5921 193.341 74.1247 200.163C75.8574 194.486 82.1857 171.091 75.6605 151.075L68.9812 178.764Z" fill="#C52707"/>
<path d="M18.3926 168.249C21.2197 171.089 24.2343 173.737 27.4163 176.175L27.2528 175.806L68.2275 178.245C66.5725 174.109 64.6702 170.076 62.531 166.167L18.3926 168.249Z" fill="#C52707"/>
<path d="M28.253 122.268C18.8617 112.997 11.6879 107.315 11.5847 107.233L11.6556 107C5.86709 109.216 2.22909 113.885 0.754395 120.098L28.253 122.268Z" fill="#C52707"/>
<path d="M62.8059 165.645C63.0094 166.015 63.2157 166.386 63.4139 166.755C65.3207 170.293 67.033 173.932 68.5431 177.656L75.159 150.229L75.4488 150.446C74.2706 146.932 72.6507 143.58 70.6278 140.472C69.8275 139.255 69.0013 138.061 68.1494 136.891L62.8059 165.645Z" fill="#C52707"/>
<path d="M41.2205 136.071C37.0011 131.207 32.8039 126.793 28.9513 122.961L0.821749 120.741L0.679806 120.411C-0.374743 125.123 -0.202854 130.7 1.19871 136.756L41.2205 136.071Z" fill="#C52707"/>
<path d="M68.4871 178.904L27.8123 176.482C46.8884 191.104 72.0217 200.807 73.6247 201.418C73.2328 193.823 71.3342 186.236 68.4871 178.904Z" fill="#C52707"/>
<path d="M62.1501 165.508L62.1551 165.481C59.5334 160.76 56.6587 156.182 53.5434 151.769L8.12256 154.246C9.1748 156.148 10.3293 158.057 11.586 159.973C13.4069 162.698 15.4733 165.252 17.7594 167.603L62.1501 165.508Z" fill="#C52707"/>
<path d="M30.5193 205C30.5193 205 94.2181 179.825 171.137 205Z" fill="#0F263D"/>
<path d="M76.8303 185.685C76.8795 186.358 76.9629 187.029 77.0802 187.695C77.0802 187.695 82.5617 191.413 83.0002 187.257C83.2853 184.55 82.6407 183.327 82.1539 182.804L82.1462 182.796C81.8537 182.488 81.6889 182.08 81.6847 181.656V176.759L76.861 178.29L77.0802 182.446C76.7557 183.31 76.7513 184.6 76.8303 185.685Z" fill="#FFB9B9"/>
<path opacity="0.05" d="M76.8303 185.685C76.8796 186.358 76.963 187.029 77.0803 187.695C77.0803 187.695 82.5618 191.413 83.0003 187.257C83.2853 184.55 82.6407 183.327 82.1539 182.804C81.9636 182.661 81.7376 182.572 81.5004 182.547C81.2631 182.523 81.0236 182.563 80.8077 182.664C79.9307 182.275 78.9659 182.925 78.1678 183.764C77.627 184.333 77.176 184.981 76.8303 185.685Z" fill="black"/>
<path d="M80.8077 183.102C80.8077 183.102 83.2195 181.79 83.6581 187.695C84.0966 193.6 84.3158 192.944 84.3158 192.944C84.3158 192.944 86.5084 198.192 81.904 197.536C77.2996 196.88 75.107 196.443 75.3262 193.818C75.4584 192.237 75.8295 189.94 76.1035 188.364C76.3646 186.804 77.0825 185.355 78.167 184.201C78.967 183.361 79.9307 182.713 80.8077 183.102Z" fill="#2F2E41"/>
<path d="M106.566 190.609L109.08 191.818C109.08 191.818 116.933 193.02 114.442 188.56C113.721 187.227 113.171 185.809 112.804 184.34C112.28 182.293 111.988 180.194 111.935 178.082L105.291 179.006C107.458 181.884 107.183 186.553 106.848 188.998C106.712 189.983 106.566 190.609 106.566 190.609Z" fill="#FFB9B9"/>
<path opacity="0.05" d="M106.566 190.609L109.08 191.818C109.08 191.818 116.933 193.02 114.442 188.56C113.721 187.227 113.171 185.809 112.804 184.34C111.279 184.632 110.118 186.823 110.118 186.823C108.888 191.083 107.781 190.019 106.848 188.998C106.712 189.983 106.566 190.609 106.566 190.609Z" fill="black"/>
<path d="M110.263 187.236C110.263 187.236 112.221 183.542 114.393 185.102C116.565 186.662 115.487 188.891 122.522 191.073C129.557 193.256 124.908 197.887 120.603 197.533C116.299 197.179 107.122 195.512 107.122 195.512C107.122 195.512 104.736 188.698 105.843 188.544C106.951 188.39 108.479 193.417 110.263 187.236Z" fill="#2F2E41"/>
<path opacity="0.3" d="M120.314 196.707C123.108 196.937 126.047 195.066 125.84 193.127C127.176 195.316 123.795 197.796 120.603 197.533C116.299 197.179 107.122 195.512 107.122 195.512C107.122 195.512 107.009 195.191 106.845 194.688C107.112 194.736 116.074 196.359 120.314 196.707Z" fill="white"/>
<path opacity="0.3" d="M75.3376 193.693C75.5904 195.66 77.7782 196.074 81.904 196.662C84.0022 196.96 84.687 196.033 84.813 194.935C84.9502 196.341 84.5498 197.913 81.904 197.536C77.2996 196.88 75.107 196.443 75.3262 193.818C75.3297 193.778 75.3339 193.734 75.3376 193.693Z" fill="white"/>
<path d="M65.3085 108.326L64.5807 119.216C64.5807 119.216 63.9984 130.252 68.5109 131.123C73.0235 131.994 68.5109 117.038 68.5109 117.038V107.165L65.3085 108.326Z" fill="#FBBEBE"/>
<path d="M69.0932 68.6869L68.5109 69.9937C68.5109 69.9937 68.6565 79.1413 68.5109 79.8673C68.3653 80.5933 66.473 86.2561 66.473 86.8369C66.473 87.4177 65.0173 104.261 64.7262 105.277C64.435 106.294 63.1249 109.488 64.2895 109.924C65.454 110.359 67.6375 108.617 68.5109 109.924C69.3843 111.23 70.1121 109.924 70.1121 109.488C70.1121 109.052 70.4033 100.776 72.1501 98.4528C73.8969 96.1296 75.4981 90.9025 75.7893 89.8861C76.0804 88.8697 76.5171 74.2045 76.6627 73.9141C76.8082 73.6237 76.0804 69.7033 76.0804 69.7033L69.0932 68.6869Z" fill="#FFAA2A"/>
<path d="M77.3904 84.0781C77.3904 84.0781 75.6436 90.9024 74.4791 92.2092C73.3146 93.516 67.4919 103.244 69.2387 116.167C70.9855 129.09 74.0424 145.933 74.0424 145.933C74.0424 145.933 74.4791 151.886 73.8968 153.483C73.3146 155.081 76.517 180.491 76.517 180.491C76.517 180.491 81.0296 183.975 83.5043 179.619C83.5043 179.619 82.922 170.181 83.5043 169.31C84.0865 168.439 83.5043 152.757 83.5043 152.757C83.5043 152.757 83.941 113.699 86.27 115.296C88.5991 116.893 95.7319 144.046 95.7319 144.046C95.7319 144.046 98.7888 154.5 98.6432 155.371C98.4977 156.242 101.263 167.132 101.263 167.132C101.263 167.132 103.884 182.233 104.903 182.523C105.922 182.814 112.181 182.959 112.763 181.362L111.016 167.713C111.016 167.713 109.27 152.177 108.396 149.999C107.523 147.821 106.067 116.893 101.846 107.746C101.846 107.746 100.244 93.0805 99.0799 90.9025C99.0799 90.9025 98.3968 87.9103 99.2398 85.117C99.2398 85.117 78.9917 85.2397 77.3904 84.0781Z" fill="#2F2E41"/>
<path d="M86.0519 56.8532C92.805 56.8532 98.2795 49.9298 98.2795 41.3894C98.2795 32.849 92.805 25.9257 86.0519 25.9257C79.2987 25.9257 73.8242 32.849 73.8242 41.3894C73.8242 49.9298 79.2987 56.8532 86.0519 56.8532Z" fill="#2F2E41"/>
<path d="M111.162 59.5393L109.27 63.6049L86.8524 70.1389C86.8524 70.1389 71.2768 74.6401 69.6755 67.3801C68.0743 60.1201 75.7893 59.3941 75.7893 59.3941C75.7893 59.3941 78.7007 57.3613 82.3399 55.3285C83.5568 54.6475 83.96 53.5455 83.9571 52.3795C83.9541 52.0328 83.9215 51.6869 83.8596 51.3457C83.7894 50.9513 83.6921 50.5623 83.5684 50.1812C83.2603 49.2407 82.8482 48.3374 82.3399 47.4877C82.3399 47.4877 91.9473 43.7126 91.8017 45.7454C91.7402 46.4776 91.8192 47.2148 92.0346 47.9175C92.2334 48.5329 92.5015 49.1237 92.8338 49.6788C92.9968 49.959 93.1788 50.2494 93.3811 50.5573C93.6431 50.9566 93.9415 51.382 94.2763 51.8437C96.1687 54.4573 102.428 54.4573 102.428 54.4573C107.377 53.8765 111.162 59.5393 111.162 59.5393Z" fill="#FBBEBE"/>
<path d="M134.307 82.7712C134.307 82.7712 144.788 90.4668 146.826 90.3216C148.864 90.1764 160.8 89.4504 158.035 92.2092C155.269 94.968 142.75 93.2256 142.75 93.2256L131.25 85.9656L134.307 82.7712Z" fill="#FBBEBE"/>
<path opacity="0.1" d="M92.0346 47.9175C90.9756 49.045 89.6215 49.8545 88.1254 50.2546C86.6293 50.6546 85.0508 50.6292 83.5684 50.1812C83.2603 49.2407 82.8482 48.3374 82.3398 47.4878C82.3398 47.4878 91.9473 43.7126 91.8017 45.7454C91.7402 46.4776 91.8192 47.2148 92.0346 47.9175Z" fill="black"/>
<path d="M85.979 49.5205C90.5614 49.5205 94.2763 45.8151 94.2763 41.2442C94.2763 36.6732 90.5614 32.9678 85.979 32.9678C81.3965 32.9678 77.6816 36.6732 77.6816 41.2442C77.6816 45.8151 81.3965 49.5205 85.979 49.5205Z" fill="#FBBEBE"/>
<path d="M75.6437 65.3473C75.6437 65.3473 111.744 57.2161 111.89 58.3777C112.035 59.5393 113.491 61.8625 113.491 61.8625L105.048 71.4457C105.048 71.4457 106.067 76.0921 104.029 77.1085C101.991 78.1249 101.7 85.8204 99.8078 85.9656C97.9154 86.1108 75.7893 85.8205 75.6437 84.6589C75.4981 83.4973 76.226 82.7713 75.6437 82.4809C75.0614 82.1905 74.188 82.1905 74.9159 80.7385C75.6437 79.2865 75.6437 73.1881 75.6437 73.1881L68.802 69.9937C68.802 69.9937 67.8638 67.2881 69.5702 66.8259C71.2767 66.3637 75.6437 65.3473 75.6437 65.3473Z" fill="#FFAA2A"/>
<path d="M112.181 61.5721H113.491C113.491 61.5721 117.422 64.1857 118.441 66.5089C119.459 68.8321 123.099 71.8813 123.972 72.7525C124.845 73.6237 136.782 81.9001 136.636 83.0617C136.491 84.2233 133.143 85.3849 132.997 86.6917C132.852 87.9985 134.453 88.5793 133.434 88.5793C132.415 88.5793 126.156 84.9493 123.826 83.6425C121.497 82.3357 116.694 78.5605 116.111 77.5441C115.529 76.5277 111.599 74.7853 111.162 74.0593C110.725 73.3333 103.884 69.9937 103.884 69.9937L112.181 61.5721Z" fill="#FFAA2A"/>
<path d="M73.8242 36.6704C76.3968 36.6704 78.4823 34.5901 78.4823 32.024C78.4823 29.4579 76.3968 27.3776 73.8242 27.3776C71.2515 27.3776 69.166 29.4579 69.166 32.024C69.166 34.5901 71.2515 36.6704 73.8242 36.6704Z" fill="#2F2E41"/>
<path d="M94.3491 30.572C96.9217 30.572 99.0072 28.4918 99.0072 25.9256C99.0072 23.3595 96.9217 21.2792 94.3491 21.2792C91.7764 21.2792 89.6909 23.3595 89.6909 25.9256C89.6909 28.4918 91.7764 30.572 94.3491 30.572Z" fill="#2F2E41"/>
<path d="M87.1434 41.1716C91.9269 41.1716 95.8047 38.7988 95.8047 35.8718C95.8047 32.9448 91.9269 30.572 87.1434 30.572C82.3599 30.572 78.4822 32.9448 78.4822 35.8718C78.4822 38.7988 82.3599 41.1716 87.1434 41.1716Z" fill="#2F2E41"/>
<path d="M92.8338 49.6788C88.8424 51.2455 85.6879 51.4314 83.8596 51.3457C83.9215 51.6869 83.9541 52.0328 83.9572 52.3795C84.1697 52.3883 84.3982 52.3926 84.6413 52.3926C86.6603 52.3926 89.6765 52.0427 93.3812 50.5573L92.8338 49.6788Z" fill="#2F2E41"/>
<path d="M269.56 92.9094H155.944C152.387 92.9094 149.504 95.7853 149.504 99.333V162.012C149.504 165.56 152.387 168.436 155.944 168.436H269.56C273.117 168.436 276 165.56 276 162.012V99.333C276 95.7853 273.117 92.9094 269.56 92.9094Z" fill="white"/>
<path opacity="0.3" d="M262.297 145.883H163.143V149.479H262.297V145.883Z" fill="#858DC3"/>
<path opacity="0.3" d="M262.361 136.442H163.207V140.038H262.361V136.442Z" fill="#858DC3"/>
<path opacity="0.3" d="M262.361 123.554H244.633V127.151H262.361V123.554Z" fill="#858DC3"/>
<path opacity="0.3" d="M262.361 113.964H197.46V117.56H262.361V113.964Z" fill="#858DC3"/>
<path opacity="0.3" d="M212.784 155.473H163.143V159.07H212.784V155.473Z" fill="#858DC3"/>
<path d="M185.091 102.275H166.261C164.575 102.275 163.207 103.639 163.207 105.322V124.104C163.207 125.787 164.575 127.151 166.261 127.151H185.091C186.778 127.151 188.146 125.787 188.146 124.104V105.322C188.146 103.639 186.778 102.275 185.091 102.275Z" fill="#FFAA2A"/>
</g>
<defs>
<clipPath id="clip0_225_313">
<rect width="276" height="205" fill="white"/>
</clipPath>
</defs>
</svg>
