<svg width="109" height="109" viewBox="0 0 109 109" fill="none" xmlns="http://www.w3.org/2000/svg">
<g filter="url(#filter0_d_220_2110)">
<rect x="35.2109" y="35.2109" width="38.5782" height="38.5782" rx="4" fill="white"/>
</g>
<g clip-path="url(#clip0_220_2110)">
<path d="M60.244 50.0437C59.5523 49.7664 59.3525 49.5987 59.3525 49.2959C59.3525 49.0536 59.536 48.7706 60.0535 48.7706C60.5111 48.7706 60.8621 48.951 60.8652 48.9526C60.9022 48.9723 60.9436 48.9828 60.9846 48.9828C61.0848 48.9828 61.1734 48.9222 61.2101 48.8284L61.3358 48.507C61.3796 48.3899 61.3132 48.2879 61.2285 48.2513C60.9467 48.1286 60.396 48.0337 60.3904 48.0327C60.3815 48.0311 60.3507 48.0245 60.3507 47.9885L60.3489 47.5223C60.3489 47.3819 60.2317 47.2676 60.0878 47.2676H59.8622C59.7184 47.2676 59.6013 47.3818 59.6013 47.5223L59.6019 48.0125C59.6019 48.0501 59.5611 48.0664 59.5463 48.0698C58.8511 48.2354 58.4167 48.7446 58.4167 49.3869C58.4167 50.1876 59.0786 50.5494 59.7932 50.821C60.3645 51.0453 60.5976 51.2727 60.5976 51.6063C60.5976 51.9693 60.2675 52.2228 59.7946 52.2228C59.3909 52.2228 58.8444 51.9669 58.839 51.9643C58.804 51.9477 58.767 51.9393 58.7289 51.9393C58.6249 51.9393 58.5343 52.0022 58.4981 52.0996L58.3781 52.4247C58.3354 52.546 58.4011 52.6445 58.4852 52.6884C58.8208 52.8631 59.4702 52.9656 59.4991 52.9701C59.5069 52.9712 59.5464 52.9851 59.5464 53.0212V53.5092C59.5464 53.6496 59.6636 53.7639 59.8076 53.7639H60.0407C60.1847 53.7639 60.3019 53.6497 60.3019 53.5092V52.9956C60.3019 52.9476 60.3374 52.9434 60.3447 52.9416C61.0852 52.7753 61.5414 52.2334 61.5414 51.5531C61.5412 50.8543 61.1531 50.4028 60.244 50.0437Z" fill="#343B71"/>
<path d="M59.9529 44.395C56.5724 44.395 53.8322 47.1354 53.8322 50.5157C53.8322 53.896 56.5724 56.6365 59.9529 56.6365C63.3332 56.6365 66.0735 53.896 66.0735 50.5157C66.0735 47.1354 63.3332 44.395 59.9529 44.395ZM59.9529 55.218C57.3558 55.218 55.2506 53.1126 55.2506 50.5157C55.2506 47.9189 57.3558 45.8136 59.9529 45.8136C62.5498 45.8136 64.6549 47.9189 64.6549 50.5157C64.6549 53.1126 62.5498 55.218 59.9529 55.218Z" fill="#343B71"/>
<path d="M64.8299 59.6025C63.5284 60.3209 61.7383 60.9851 59.953 61.2651C58.3647 61.5142 55.3766 60.9134 55.3766 60.2039C55.3766 59.9351 57.9973 60.8664 59.5825 60.4434C60.7981 60.1191 60.6256 58.982 59.9644 58.832C59.307 58.6828 55.4558 57.2719 53.8107 57.2233C53.0358 57.2004 51.1227 57.4928 50.1969 57.6435C49.8798 57.6951 49.6809 57.6895 49.6611 57.993C49.569 59.4034 49.3874 62.2878 49.2884 63.7945C49.2863 63.8263 49.3306 64.2544 49.6839 63.9532C50.0705 63.6234 50.6129 63.258 51.1145 63.3717C51.9015 63.5503 58.71 64.7976 59.6491 64.5793C60.9926 64.267 64.7958 62.0132 65.525 61.3126C66.6552 60.2266 65.7766 59.08 64.8299 59.6025Z" fill="#343B71"/>
<path d="M47.7821 57.5885L44.2153 57.4128C43.9399 57.3992 43.6587 57.6067 43.5902 57.8738L42.9417 63.762C42.8733 64.0291 43.0428 64.2564 43.3183 64.267L47.2712 64.2666C47.5468 64.2773 47.7893 64.0611 47.8105 63.7862L48.2446 58.113C48.2656 57.8382 48.0575 57.6021 47.7821 57.5885ZM45.6823 63.4866C45.1376 63.4866 44.6961 63.045 44.6961 62.5004C44.6961 61.9557 45.1377 61.5142 45.6823 61.5142C46.2269 61.5142 46.6685 61.9558 46.6685 62.5004C46.6685 63.0451 46.227 63.4866 45.6823 63.4866Z" fill="#343B71"/>
</g>
<defs>
<filter id="filter0_d_220_2110" x="0" y="0" width="109" height="109" filterUnits="userSpaceOnUse" color-interpolation-filters="sRGB">
<feFlood flood-opacity="0" result="BackgroundImageFix"/>
<feColorMatrix in="SourceAlpha" type="matrix" values="0 0 0 0 0 0 0 0 0 0 0 0 0 0 0 0 0 0 127 0" result="hardAlpha"/>
<feOffset/>
<feGaussianBlur stdDeviation="17.5"/>
<feColorMatrix type="matrix" values="0 0 0 0 0.831373 0 0 0 0 0.831373 0 0 0 0 0.831373 0 0 0 0.4 0"/>
<feBlend mode="normal" in2="BackgroundImageFix" result="effect1_dropShadow_220_2110"/>
<feBlend mode="normal" in="SourceGraphic" in2="effect1_dropShadow_220_2110" result="shape"/>
</filter>
<clipPath id="clip0_220_2110">
<rect width="23.0083" height="23.0083" fill="white" transform="translate(42.9265 42.9265) scale(1.00603)"/>
</clipPath>
</defs>
</svg>
