<svg width="24" height="24" viewBox="0 0 24 24" fill="none" xmlns="http://www.w3.org/2000/svg">
<g clip-path="url(#clip0_208_1124)">
<path d="M23 4.99998H0.999999C0.447715 4.99998 0 5.44769 0 5.99998C0 6.55226 0.447716 6.99998 1 6.99998H23C23.5522 6.99998 24 6.55226 24 5.99998C24 5.44769 23.5522 4.99998 23 4.99998Z" fill="white"/>
<path d="M19.9998 11H3.99987C3.44759 11 2.99987 11.4477 2.99987 12C2.99987 12.5523 3.44758 13 3.99987 13H19.9998C20.5521 13 20.9998 12.5523 20.9998 12C20.9998 11.4477 20.5521 11 19.9998 11Z" fill="white"/>
<path d="M16.0002 16.9999H8.00021C7.44793 16.9999 7.00021 17.4477 7.00021 17.9999C7.00021 18.5522 7.44793 18.9999 8.00021 18.9999H16.0002C16.5525 18.9999 17.0002 18.5522 17.0002 17.9999C17.0002 17.4477 16.5525 16.9999 16.0002 16.9999Z" fill="white"/>
</g>
<defs>
<clipPath id="clip0_208_1124">
<rect width="23.04" height="23.04" fill="white" transform="scale(1.04166)"/>
</clipPath>
</defs>
</svg>
