<svg width="24" height="24" viewBox="0 0 24 24" fill="none" xmlns="http://www.w3.org/2000/svg">
<g clip-path="url(#clip0_225_795)">
<path d="M11.9601 21.9668H2.99001C2.43984 21.9668 1.99335 21.5203 1.99335 20.9701V3.02995C1.99335 2.47978 2.43988 2.0333 2.99001 2.0333H11.9601C12.5113 2.0333 12.9568 1.5878 12.9568 1.03665C12.9568 0.485493 12.5113 0.0399008 11.9601 0.0399008H2.99001C1.34151 0.0399008 0 1.38146 0 3.02995V20.9701C0 22.6186 1.34151 23.9601 2.99001 23.9601H11.9601C12.5113 23.9601 12.9568 23.5146 12.9568 22.9634C12.9568 22.4123 12.5113 21.9668 11.9601 21.9668Z" fill="white"/>
<path d="M23.7028 11.2904L17.643 5.31038C17.2523 4.92366 16.6205 4.92868 16.2337 5.32037C15.847 5.71205 15.851 6.34294 16.2437 6.72966L20.5743 11.0034H8.96997C8.41881 11.0034 7.97332 11.4489 7.97332 12C7.97332 12.5512 8.41881 12.9967 8.96997 12.9967H20.5743L16.2437 17.2705C15.8511 17.6572 15.8481 18.2881 16.2337 18.6798C16.4291 18.8771 16.6862 18.9767 16.9434 18.9767C17.1966 18.9767 17.4497 18.8811 17.643 18.6897L23.7028 12.7096C23.8922 12.5223 23.9998 12.2671 23.9998 12C23.9998 11.733 23.8932 11.4788 23.7028 11.2904Z" fill="white"/>
</g>
<defs>
<clipPath id="clip0_225_795">
<rect width="23.1286" height="23.1286" fill="white" transform="scale(1.03767)"/>
</clipPath>
</defs>
</svg>
