<svg width="192" height="192" viewBox="0 0 192 192" fill="none" xmlns="http://www.w3.org/2000/svg">
<path d="M151.757 46.5002L136.781 37.8045C136.44 37.6061 136.047 37.5134 135.652 37.538L113.023 38.9522C112.53 38.983 112.043 38.8301 111.656 38.523L83.8032 16.4331C83.4496 16.1526 83.0116 16 82.5604 16L58.3742 16C57.9722 16 57.5796 15.8789 57.2475 15.6525L36.267 1.3476C35.9349 1.12117 35.5423 1.00006 35.1403 1.00006L18.3391 1.00006C17.6641 1.00006 17.0346 1.34057 16.6652 1.90556L1.28605 25.4267C0.707869 26.3109 0.917211 27.4924 1.76402 28.1242L189.729 168.36C190.584 168.998 190.788 170.196 190.191 171.081L176.757 191" stroke="#AD1D07" stroke-width="2" stroke-linecap="round" stroke-linejoin="round" stroke-dasharray="4 4"/>
</svg>
