<svg width="24" height="24" viewBox="0 0 24 24" fill="none" xmlns="http://www.w3.org/2000/svg">
<g clip-path="url(#clip0_208_1134)">
<path d="M21.1029 19.0993C21.0323 19.0535 20.5014 18.6816 19.9697 17.5563C18.9934 15.49 18.7884 12.5792 18.7884 10.5012C18.7884 10.4921 18.7882 10.4832 18.7879 10.4742C18.7773 7.7278 17.1328 5.36033 14.7795 4.2981V2.67356C14.7795 1.19934 13.5821 0 12.1103 0H11.8891C10.4173 0 9.21995 1.19934 9.21995 2.67356V4.29801C6.85877 5.36366 5.21098 7.74322 5.21098 10.5012C5.21098 12.5792 5.00604 15.49 4.02968 17.5563C3.49807 18.6815 2.96712 19.0535 2.89653 19.0993C2.59925 19.2369 2.45267 19.5547 2.52106 19.8768C2.59011 20.2021 2.89414 20.4263 3.22615 20.4263H8.37991C8.40869 22.4017 10.0209 24 11.9997 24C13.9786 24 15.5908 22.4017 15.6196 20.4263H20.7733C21.1053 20.4263 21.4094 20.2021 21.4784 19.8768C21.5467 19.5547 21.4002 19.2369 21.1029 19.0993V19.0993ZM10.6262 2.67356C10.6262 1.97601 11.1928 1.40854 11.8892 1.40854H12.1104C12.8067 1.40854 13.3733 1.97601 13.3733 2.67356V3.84154C12.9294 3.74981 12.47 3.70153 11.9995 3.70153C11.5292 3.70153 11.0699 3.74976 10.6263 3.8414V2.67356H10.6262ZM11.9997 22.5914C10.7963 22.5914 9.8147 21.625 9.78616 20.4264H14.2133C14.1848 21.6249 13.2031 22.5914 11.9997 22.5914V22.5914ZM14.831 19.0177C14.8308 19.0177 4.82857 19.0177 4.82857 19.0177C4.95021 18.8282 5.07401 18.6135 5.19705 18.3709C6.13943 16.5127 6.61727 13.8649 6.61727 10.5012C6.61727 7.52849 9.03175 5.11007 11.9995 5.11007C14.9672 5.11007 17.3817 7.52849 17.3817 10.5035C17.3817 10.5122 17.3819 10.5208 17.3822 10.5294C17.3849 13.8797 17.8627 16.5179 18.8024 18.3709C18.9255 18.6136 19.0493 18.8282 19.1709 19.0177H14.831Z" fill="white"/>
<circle cx="18.9999" cy="19" r="4.99999" fill="#0F263D"/>
</g>
<defs>
<clipPath id="clip0_208_1134">
<rect width="23.04" height="23.04" fill="white" transform="scale(1.04166)"/>
</clipPath>
</defs>
</svg>
