<svg width="23" height="54" viewBox="0 0 23 54" fill="none" xmlns="http://www.w3.org/2000/svg">
<g opacity="0.3">
<path opacity="0.3" d="M3.1373 20.0317C3.90124 20.4381 4.74922 20.6616 5.61441 20.6848C6.47959 20.7079 7.33832 20.53 8.12293 20.165C8.90754 19.8001 9.59657 19.258 10.1357 18.5817C10.6749 17.9053 11.0494 17.1131 11.2298 16.2675C11.4101 15.4218 11.3914 14.5459 11.1751 13.7087C10.9588 12.8716 10.5509 12.096 9.98333 11.4432C9.41582 10.7904 8.70428 10.2782 7.90481 9.94703C7.10534 9.61581 6.23978 9.47461 5.37637 9.53458L5.11173 12.3993L4.10977 9.77045C2.69937 10.2042 1.51906 11.1796 0.828184 12.4823C0.583773 12.9382 0.405285 13.4265 0.298035 13.9325C0.0431057 15.1193 0.182364 16.3567 0.694713 17.4573C1.20706 18.5579 2.06457 19.4617 3.1373 20.0317V20.0317Z" fill="#0F263D"/>
<path opacity="0.3" d="M5.12884 53.9731C4.99606 51.4862 7.36111 49.6325 9.59457 48.5261C11.828 47.4197 14.401 46.3862 15.4309 44.1182C16.9111 40.8587 14.3787 37.3239 12.4447 34.3109C11.01 32.075 9.84559 29.6771 8.97589 27.1673C8.62733 26.161 8.32376 25.1177 8.34536 24.053C8.37646 22.5198 9.07379 21.0884 9.76592 19.7196C12.0716 15.1599 14.4842 10.6561 17.0036 6.20842" stroke="#0F263D" stroke-miterlimit="10"/>
<path opacity="0.3" d="M3.46886 19.3315C4.2328 19.7379 5.08077 19.9615 5.94596 19.9846C6.81114 20.0077 7.66989 19.8298 8.4545 19.4648C9.23911 19.0999 9.92814 18.5579 10.4673 17.8815C11.0064 17.2051 11.381 16.4129 11.5613 15.5673C11.7417 14.7217 11.723 13.8457 11.5067 13.0086C11.2904 12.1714 10.8824 11.3958 10.3149 10.7431C9.74738 10.0903 9.03584 9.57808 8.23636 9.24686C7.43689 8.91565 6.57135 8.77447 5.70794 8.83443L5.44327 11.6991L4.44133 9.07029C3.03093 9.50403 1.85061 10.4794 1.15974 11.7821C0.915326 12.2381 0.736822 12.7263 0.629571 13.2323C0.374641 14.4191 0.513898 15.6566 1.02625 16.7572C1.5386 17.8578 2.39613 18.7615 3.46886 19.3315Z" stroke="#0F263D" stroke-miterlimit="10"/>
<path opacity="0.3" d="M11.4601 4.42225C11.8996 3.59575 12.5403 2.89304 13.3231 2.37889C14.1059 1.86475 15.0056 1.55571 15.9394 1.48022L16.0117 4.2494L17.2589 1.52813C18.4292 1.71134 19.511 2.26137 20.3479 3.09878C21.1849 3.93619 21.7339 5.01767 21.9155 6.18706C22.0971 7.35645 21.9021 8.55323 21.3585 9.60464C20.8148 10.6561 19.9508 11.5077 18.8911 12.0366C17.8314 12.5655 16.6309 12.7442 15.4628 12.5471C14.2948 12.3499 13.2197 11.787 12.3928 10.9397C11.5658 10.0924 11.0299 9.00443 10.8622 7.83296C10.6946 6.66149 10.9039 5.4671 11.4601 4.42225V4.42225Z" fill="#0F263D"/>
<path opacity="0.3" d="M11.9021 3.48859C12.3416 2.66209 12.9823 1.95938 13.7651 1.44524C14.5479 0.931089 15.4477 0.622031 16.3814 0.546546L16.4538 3.31574L17.7009 0.594467C18.8712 0.777683 19.953 1.3277 20.79 2.16511C21.627 3.00252 22.1759 4.084 22.3575 5.25339C22.5392 6.42279 22.3441 7.61959 21.8005 8.67101C21.2569 9.72243 20.3928 10.574 19.3331 11.1029C18.2734 11.6318 17.0729 11.8106 15.9049 11.6134C14.7369 11.4163 13.6618 10.8534 12.8348 10.0061C12.0079 9.15874 11.4719 8.07079 11.3043 6.89932C11.1366 5.72784 11.346 4.53346 11.9021 3.48859Z" stroke="#0F263D" stroke-miterlimit="10"/>
<path opacity="0.3" d="M11.4655 34.2283C12.6772 34.8717 14.0836 35.0473 15.4165 34.7215C16.7494 34.3957 17.9157 33.5913 18.6931 32.4617C19.4705 31.3321 19.8046 29.9562 19.6318 28.5962C19.459 27.2363 18.7912 25.9875 17.7559 25.0877L16.7976 27.179L16.7251 24.3772C16.7209 24.3745 16.7164 24.372 16.7118 24.3699C16.0637 24.0247 15.3539 23.8104 14.6229 23.7395C13.8918 23.6685 13.154 23.7421 12.4515 23.9563C11.749 24.1704 11.0957 24.5207 10.5288 24.9873C9.96199 25.4538 9.49279 26.0274 9.14803 26.6753C8.80327 27.3231 8.58973 28.0325 8.51962 28.7629C8.44952 29.4932 8.52422 30.2302 8.73946 30.9317C8.95471 31.6332 9.30627 32.2854 9.77404 32.8511C10.2418 33.4167 10.8166 33.8847 11.4655 34.2283V34.2283Z" fill="#0F263D"/>
<path opacity="0.3" d="M11.8689 33.2763C13.0806 33.9197 14.4869 34.0953 15.8199 33.7695C17.1528 33.4437 18.3191 32.6393 19.0965 31.5097C19.8739 30.38 20.208 29.0041 20.0352 27.6442C19.8623 26.2843 19.1946 25.0354 18.1593 24.1357L17.2009 26.2269L17.1285 23.4252C17.1242 23.4224 17.1197 23.4199 17.1151 23.4179C16.4671 23.0733 15.7575 22.8597 15.0269 22.7893C14.2962 22.7188 13.5588 22.7928 12.8568 23.0071C12.1548 23.2214 11.5019 23.5717 10.9354 24.0381C10.369 24.5046 9.90011 25.0779 9.55553 25.7254C9.21096 26.3729 8.99746 27.0819 8.92725 27.8118C8.85703 28.5418 8.93145 29.2784 9.14628 29.9796C9.36112 30.6808 9.71214 31.3329 10.1793 31.8985C10.6465 32.4642 11.2206 32.9323 11.8689 33.2762V33.2763Z" stroke="#0F263D" stroke-miterlimit="10"/>
<path opacity="0.3" d="M4.40427 42.5934C4.44698 43.8728 4.92876 45.0986 5.76881 46.0653C6.60886 47.032 7.75609 47.6807 9.0181 47.9027C10.2801 48.1246 11.5801 47.9064 12.7002 47.2845C13.8202 46.6626 14.6921 45.6748 15.1697 44.487C15.6473 43.2991 15.7015 41.9833 15.3232 40.7602C14.9449 39.5371 14.1572 38.4812 13.0921 37.7695C12.027 37.0578 10.7493 36.7335 9.47329 36.8512C8.19729 36.9688 7.00059 37.5212 6.08389 38.4157L8.02393 42.4711L4.9342 40.0273C4.55434 40.8279 4.3726 41.708 4.40427 42.5934Z" fill="#0F263D"/>
<path opacity="0.3" d="M4.7358 41.893C4.77852 43.1724 5.26031 44.3983 6.10036 45.3649C6.94042 46.3316 8.08765 46.9803 9.34966 47.2023C10.6117 47.4243 11.9117 47.206 13.0317 46.5841C14.1518 45.9622 15.0237 44.9745 15.5013 43.7866C15.9789 42.5987 16.0331 41.2829 15.6548 40.0599C15.2765 38.8368 14.4888 37.7808 13.4237 37.0691C12.3585 36.3574 11.0808 36.0332 9.80485 36.1508C8.52885 36.2685 7.33215 36.8209 6.41544 37.7153L8.35547 41.7707L5.26574 39.3269C4.88588 40.1275 4.70413 41.0076 4.7358 41.893V41.893Z" stroke="#0F263D" stroke-miterlimit="10"/>
</g>
</svg>
