<svg width="24" height="24" viewBox="0 0 24 24" fill="none" xmlns="http://www.w3.org/2000/svg">
<g clip-path="url(#clip0_225_725)">
<path d="M3.26337 22.0955C3.26337 22.0955 3.24205 22.632 3.76611 22.632C4.41807 22.632 9.81583 22.6249 9.81583 22.6249L9.82471 17.6677C9.82471 17.6677 9.73944 16.8505 10.5326 16.8505H13.0428C13.9807 16.8505 13.923 17.6677 13.923 17.6677L13.9123 22.6089C13.9123 22.6089 19.0303 22.6089 19.8342 22.6089C20.4994 22.6089 20.4692 21.941 20.4692 21.941V12.802L12.1234 5.37818L3.26337 12.802C3.26337 12.802 3.26337 22.0955 3.26337 22.0955Z" fill="white"/>
<path d="M0 12.111C0 12.111 0.752329 13.4975 2.39289 12.111L12.1972 3.81668L21.3894 12.0594C23.2885 13.4291 23.9999 12.0594 23.9999 12.0594L12.1972 1.36784L0 12.111Z" fill="white"/>
<path d="M21.1665 3.79716H18.802L18.8118 6.66436L21.1665 8.66199V3.79716Z" fill="white"/>
</g>
<defs>
<clipPath id="clip0_225_725">
<rect width="23.1286" height="23.1286" fill="white" transform="scale(1.03767)"/>
</clipPath>
</defs>
</svg>
