<svg width="16" height="16" viewBox="0 0 16 16" fill="none" xmlns="http://www.w3.org/2000/svg">
<g clip-path="url(#clip0_223_84)">
<path d="M15.4688 14.5687L11.7876 10.8875C12.7001 9.77498 13.2501 8.34998 13.2501 6.79686C13.2501 3.23436 10.3594 0.343738 6.79695 0.343738C3.23133 0.343738 0.343832 3.23436 0.343832 6.79686C0.343832 10.3594 3.23133 13.25 6.79695 13.25C8.35008 13.25 9.77195 12.7031 10.8844 11.7906L14.5657 15.4687C14.8157 15.7187 15.2188 15.7187 15.4688 15.4687C15.7188 15.2219 15.7188 14.8156 15.4688 14.5687ZM6.79695 11.9656C3.94383 11.9656 1.62508 9.64686 1.62508 6.79686C1.62508 3.94686 3.94383 1.62499 6.79695 1.62499C9.64695 1.62499 11.9688 3.94686 11.9688 6.79686C11.9688 9.64686 9.64695 11.9656 6.79695 11.9656Z" fill="white"/>
</g>
<defs>
<clipPath id="clip0_223_84">
<rect width="15.5645" height="15.5645" fill="white" transform="scale(1.02798)"/>
</clipPath>
</defs>
</svg>
