<svg width="20" height="20" viewBox="0 0 20 20" fill="none" xmlns="http://www.w3.org/2000/svg">
<g clip-path="url(#clip0_203_81)">
<path d="M9.99999 6.36363C8 6.36363 6.36363 8 6.36363 9.99999C6.36363 12 8 13.6364 9.99999 13.6364C12 13.6364 13.6364 12 13.6364 9.99999C13.6364 8 12 6.36363 9.99999 6.36363ZM18.0909 9.0909C17.6364 5.27272 14.6364 2.27273 10.9091 1.90909V0H9.0909V1.90909C5.27272 2.27273 2.27273 5.27272 1.90909 9.0909H0V10.9091H1.90909C2.36363 14.7273 5.36363 17.7273 9.0909 18.0909V20H10.9091V18.0909C14.7273 17.6364 17.7273 14.6364 18.0909 10.9091H20V9.0909H18.0909ZM9.99999 16.3636C6.45454 16.3636 3.63636 13.5454 3.63636 9.99999C3.63636 6.45454 6.45454 3.63636 9.99999 3.63636C13.5454 3.63636 16.3636 6.45454 16.3636 9.99999C16.3636 13.5454 13.5454 16.3636 9.99999 16.3636Z" fill="white"/>
</g>
<defs>
<clipPath id="clip0_203_81">
<rect width="19.2" height="19.2" fill="white" transform="scale(1.04167)"/>
</clipPath>
</defs>
</svg>
