<svg width="24" height="24" viewBox="0 0 24 24" fill="none" xmlns="http://www.w3.org/2000/svg">
<g clip-path="url(#clip0_215_1871)">
<path d="M11.9602 21.9669H2.99002C2.43984 21.9669 1.99336 21.5203 1.99336 20.9702V3.02998C1.99336 2.47981 2.43989 2.03332 2.99002 2.03332H11.9602C12.5113 2.03332 12.9568 1.58782 12.9568 1.03667C12.9568 0.485511 12.5113 0.0399167 11.9602 0.0399167H2.99002C1.34152 0.0399167 0 1.38148 0 3.02998V20.9702C0 22.6187 1.34152 23.9602 2.99002 23.9602H11.9602C12.5113 23.9602 12.9568 23.5147 12.9568 22.9635C12.9568 22.4124 12.5113 21.9669 11.9602 21.9669Z" fill="white"/>
<path d="M23.7032 11.2904L17.6433 5.31034C17.2526 4.92362 16.6208 4.92863 16.234 5.32032C15.8473 5.71201 15.8513 6.3429 16.244 6.72962L20.5746 11.0034H8.97025C8.41909 11.0034 7.97359 11.4489 7.97359 12C7.97359 12.5512 8.41909 12.9967 8.97025 12.9967H20.5746L16.244 17.2705C15.8514 17.6572 15.8484 18.2881 16.234 18.6797C16.4294 18.8771 16.6865 18.9767 16.9437 18.9767C17.1969 18.9767 17.45 18.8811 17.6433 18.6897L23.7032 12.7096C23.8925 12.5222 24.0002 12.2671 24.0002 12C24.0002 11.733 23.8935 11.4788 23.7032 11.2904Z" fill="white"/>
</g>
<defs>
<clipPath id="clip0_215_1871">
<rect width="23.1286" height="23.1286" fill="white" transform="scale(1.03768)"/>
</clipPath>
</defs>
</svg>
