<svg width="24" height="24" viewBox="0 0 24 24" fill="none" xmlns="http://www.w3.org/2000/svg">
<g clip-path="url(#clip0_215_1857)">
<path d="M16 18.2222V20H0.444444C0.198667 20 0 20.1991 0 20.4444C0 20.6898 0.198667 20.8889 0.444444 20.8889H16V22.6667C16 22.912 16.1987 23.1111 16.4444 23.1111H21.7778C22.0236 23.1111 22.2222 22.912 22.2222 22.6667V20.8889H23.5556C23.8013 20.8889 24 20.6898 24 20.4444C24 20.1991 23.8013 20 23.5556 20H22.2222V18.2222C22.2222 17.9769 22.0236 17.7778 21.7778 17.7778H16.4444C16.1987 17.7778 16 17.9769 16 18.2222Z" fill="white"/>
<path d="M8.88889 9.77778V11.5556H0.444444C0.198667 11.5556 0 11.7547 0 12C0 12.2453 0.198667 12.4444 0.444444 12.4444H8.88889V14.2222C8.88889 14.4676 9.08756 14.6667 9.33333 14.6667H14.6667C14.9124 14.6667 15.1111 14.4676 15.1111 14.2222V12.4444H23.5556C23.8013 12.4444 24 12.2453 24 12C24 11.7547 23.8013 11.5556 23.5556 11.5556H15.1111V9.77778C15.1111 9.53244 14.9124 9.33333 14.6667 9.33333H9.33333C9.08756 9.33333 8.88889 9.53244 8.88889 9.77778Z" fill="white"/>
<path d="M1.77778 1.33333V3.11111H0.444444C0.198667 3.11111 0 3.31022 0 3.55555C0 3.80089 0.198667 4 0.444444 4H1.77778V5.77778C1.77778 6.02311 1.97644 6.22222 2.22222 6.22222H7.55556C7.80133 6.22222 8 6.02311 8 5.77778V4H23.5556C23.8013 4 24 3.80089 24 3.55555C24 3.31022 23.8013 3.11111 23.5556 3.11111H8V1.33333C8 1.088 7.80133 0.888887 7.55556 0.888887H2.22222C1.97644 0.888887 1.77778 1.088 1.77778 1.33333Z" fill="white"/>
</g>
<defs>
<clipPath id="clip0_215_1857">
<rect width="23.1286" height="23.1286" fill="white" transform="scale(1.03768)"/>
</clipPath>
</defs>
</svg>
