<svg width="20" height="20" viewBox="0 0 20 20" fill="none" xmlns="http://www.w3.org/2000/svg">
<g clip-path="url(#clip0_225_528)">
<path d="M14.3648 6.14953C13.791 5.90996 13.6253 5.76508 13.6253 5.50347C13.6253 5.29411 13.7775 5.04952 14.2067 5.04952C14.5863 5.04952 14.8775 5.20544 14.8801 5.20679C14.9107 5.22381 14.9451 5.23289 14.9791 5.23289C15.0622 5.23289 15.1356 5.18052 15.1661 5.09946L15.2704 4.82178C15.3067 4.7206 15.2516 4.63243 15.1814 4.60081C14.9477 4.49483 14.4909 4.41281 14.4862 4.41197C14.4788 4.41061 14.4533 4.40492 14.4533 4.37375L14.4518 3.97092C14.4518 3.84962 14.3545 3.75085 14.2352 3.75085H14.0481C13.9288 3.75085 13.8316 3.84956 13.8316 3.97098L13.8321 4.39449C13.8321 4.42696 13.7983 4.44105 13.786 4.44404C13.2094 4.58711 12.849 5.02708 12.849 5.58205C12.849 6.27388 13.3981 6.58651 13.9908 6.82118C14.4647 7.01498 14.658 7.21149 14.658 7.49971C14.658 7.81336 14.3843 8.03241 13.992 8.03241C13.6571 8.03241 13.2038 7.81127 13.1993 7.80902C13.1703 7.7947 13.1396 7.78749 13.108 7.78749C13.0217 7.78749 12.9466 7.84183 12.9166 7.92599L12.817 8.20682C12.7816 8.31167 12.8361 8.39679 12.9059 8.43467C13.1842 8.58569 13.7229 8.67419 13.7469 8.67808C13.7533 8.67904 13.7861 8.69105 13.7861 8.72228V9.14393C13.7861 9.26524 13.8834 9.364 14.0028 9.364H14.1961C14.3156 9.364 14.4128 9.26529 14.4128 9.14393V8.70018C14.4128 8.65869 14.4422 8.65503 14.4483 8.6535C15.0625 8.50976 15.4409 8.0416 15.4409 7.45377C15.4408 6.84999 15.1189 6.45985 14.3648 6.14953Z" fill="white"/>
<path d="M14.1232 1.2688C11.3191 1.2688 9.04614 3.63664 9.04614 6.55736C9.04614 9.47814 11.3191 11.846 14.1232 11.846C16.9271 11.846 19.2001 9.47814 19.2001 6.55736C19.2001 3.63664 16.9271 1.2688 14.1232 1.2688ZM14.1232 10.6204C11.9689 10.6204 10.2227 8.80124 10.2227 6.55742C10.2227 4.31359 11.9689 2.49452 14.1232 2.49452C16.2773 2.49452 18.0234 4.31359 18.0234 6.55742C18.0234 8.80124 16.2773 10.6204 14.1232 10.6204Z" fill="white"/>
<path d="M18.1683 14.4088C17.0887 15.0295 15.6038 15.6034 14.123 15.8453C12.8055 16.0606 10.3269 15.5415 10.3269 14.9285C10.3269 14.6962 12.5007 15.5009 13.8157 15.1354C14.824 14.8552 14.6809 13.8727 14.1324 13.7431C13.5872 13.6141 10.3926 12.3951 9.0281 12.353C8.38531 12.3332 6.79837 12.5859 6.03047 12.7162C5.76742 12.7608 5.60247 12.7558 5.58602 13.0181C5.50961 14.2368 5.35901 16.7291 5.27691 18.0309C5.27518 18.0584 5.31187 18.4283 5.60491 18.168C5.92565 17.8831 6.37551 17.5673 6.79161 17.6656C7.4444 17.8199 13.092 18.8976 13.871 18.709C14.9854 18.4392 18.14 16.4917 18.7449 15.8864C19.6824 14.948 18.9536 13.9573 18.1683 14.4088Z" fill="white"/>
<path d="M4.02763 12.6686L1.06902 12.5168C0.840595 12.5051 0.607303 12.6844 0.550535 12.9151L0.0125719 18.0028C-0.0441412 18.2336 0.0964511 18.43 0.324981 18.4392L3.60385 18.4388C3.83243 18.448 4.03363 18.2612 4.05117 18.0237L4.41125 13.1218C4.42868 12.8843 4.25605 12.6804 4.02763 12.6686ZM2.28586 17.7648C1.83405 17.7648 1.46785 17.3833 1.46785 16.9127C1.46785 16.4421 1.8341 16.0606 2.28586 16.0606C2.73762 16.0606 3.10387 16.4421 3.10387 16.9127C3.10387 17.3834 2.73767 17.7648 2.28586 17.7648Z" fill="white"/>
</g>
<defs>
<clipPath id="clip0_225_528">
<rect width="19.2" height="20" fill="white"/>
</clipPath>
</defs>
</svg>
