<svg width="35" height="35" viewBox="0 0 35 35" fill="none" xmlns="http://www.w3.org/2000/svg">
<rect width="34.9999" height="34.9999" rx="2" fill="#0F263D"/>
<g clip-path="url(#clip0_227_1703)">
<path d="M17.5001 7.77776C12.1393 7.77776 7.77794 12.1391 7.77794 17.5C7.77794 22.8608 12.1393 27.2222 17.5001 27.2222C22.861 27.2222 27.2224 22.8608 27.2224 17.5C27.2224 12.1391 22.861 7.77776 17.5001 7.77776ZM17.5001 25.1534C13.2801 25.1534 9.84646 21.7203 9.84646 17.5C9.84646 13.2797 13.2801 9.84648 17.5001 9.84648C21.7202 9.84648 25.1538 13.2797 25.1538 17.5C25.1538 21.7203 21.7202 25.1534 17.5001 25.1534Z" fill="white"/>
<path d="M22.567 17.1998H18.1978V11.9464C18.1978 11.5043 17.8394 11.1459 17.3973 11.1459C16.9552 11.1459 16.5968 11.5043 16.5968 11.9464V18.0003C16.5968 18.4424 16.9552 18.8008 17.3973 18.8008H22.567C23.0091 18.8008 23.3675 18.4424 23.3675 18.0003C23.3675 17.5582 23.0091 17.1998 22.567 17.1998Z" fill="white"/>
</g>
<defs>
<clipPath id="clip0_227_1703">
<rect width="19.2" height="19.2" fill="white" transform="translate(7.77794 7.77776) scale(1.01273)"/>
</clipPath>
</defs>
</svg>
