<svg width="23" height="23" viewBox="0 0 23 23" fill="none" xmlns="http://www.w3.org/2000/svg">
<path d="M22.4773 1.56798C22.766 1.27932 22.766 0.811317 22.4773 0.52266V0.52266C22.1887 0.234003 21.7207 0.234003 21.432 0.52266L11.5 10.4547L1.56798 0.52266C1.27932 0.234003 0.811317 0.234003 0.52266 0.52266V0.52266C0.234003 0.811317 0.234003 1.27932 0.52266 1.56798L10.4547 11.5L0.52266 21.432C0.234003 21.7207 0.234003 22.1887 0.52266 22.4773V22.4773C0.811317 22.766 1.27932 22.766 1.56798 22.4773L11.5 12.5453L21.432 22.4773C21.7207 22.766 22.1887 22.766 22.4773 22.4773V22.4773C22.766 22.1887 22.766 21.7207 22.4773 21.432L12.5453 11.5L22.4773 1.56798Z" fill="white"/>
</svg>
