<svg width="24" height="24" viewBox="0 0 24 24" fill="none" xmlns="http://www.w3.org/2000/svg">
<g clip-path="url(#clip0_225_606)">
<path d="M21.1031 19.0994C21.0326 19.0536 20.5016 18.6816 19.97 17.5564C18.9936 15.49 18.7887 12.5792 18.7887 10.5012C18.7887 10.4921 18.7885 10.4832 18.7881 10.4742C18.7775 7.72781 17.133 5.36034 14.7797 4.29811V2.67356C14.7797 1.19934 13.5823 0 12.1105 0H11.8893C10.4175 0 9.22016 1.19934 9.22016 2.67356V4.29802C6.85897 5.36367 5.21117 7.74323 5.21117 10.5012C5.21117 12.5792 5.00624 15.49 4.02988 17.5564C3.49827 18.6816 2.96731 19.0535 2.89672 19.0994C2.59944 19.2369 2.45286 19.5548 2.52125 19.8768C2.5903 20.2021 2.89433 20.4263 3.22634 20.4263H8.38011C8.40889 22.4017 10.0211 24 11.9999 24C13.9788 24 15.591 22.4017 15.6198 20.4263H20.7735C21.1055 20.4263 21.4096 20.2021 21.4786 19.8768C21.5469 19.5548 21.4004 19.2369 21.1031 19.0994V19.0994ZM10.6265 2.67356C10.6265 1.97602 11.193 1.40855 11.8894 1.40855H12.1106C12.8069 1.40855 13.3735 1.97602 13.3735 2.67356V3.84155C12.9297 3.74981 12.4702 3.70153 11.9998 3.70153C11.5294 3.70153 11.0701 3.74977 10.6265 3.84141V2.67356H10.6265ZM11.9999 22.5915C10.7965 22.5915 9.81491 21.625 9.78636 20.4264H14.2135C14.185 21.625 13.2034 22.5915 11.9999 22.5915V22.5915ZM14.8312 19.0178C14.831 19.0178 4.82877 19.0178 4.82877 19.0178C4.95041 18.8282 5.0742 18.6135 5.19725 18.371C6.13963 16.5127 6.61747 13.8649 6.61747 10.5012C6.61747 7.5285 9.03195 5.11008 11.9997 5.11008C14.9675 5.11008 17.3819 7.5285 17.3819 10.5035C17.3819 10.5122 17.3821 10.5208 17.3824 10.5294C17.3851 13.8797 17.8629 16.518 18.8026 18.371C18.9257 18.6136 19.0495 18.8282 19.1711 19.0178H14.8312Z" fill="white"/>
<circle cx="18.9999" cy="19" r="5" fill="#0F263D"/>
</g>
<defs>
<clipPath id="clip0_225_606">
<rect width="23.0312" height="23.0312" fill="white" transform="scale(1.04206)"/>
</clipPath>
</defs>
</svg>
