<svg width="24" height="24" viewBox="0 0 24 24" fill="none" xmlns="http://www.w3.org/2000/svg">
<g clip-path="url(#clip0_225_788)">
<path d="M12 0C5.38318 0 0 5.38326 0 12C0 18.6168 5.38318 23.9999 12 23.9999C18.6167 23.9999 23.9999 18.6168 23.9999 12C23.9999 5.38326 18.6167 0 12 0ZM12 21.8181C6.58616 21.8181 2.18181 17.4138 2.18181 12C2.18181 6.58631 6.58616 2.18181 12 2.18181C17.4138 2.18181 21.8181 6.58631 21.8181 12C21.8181 17.4138 17.4137 21.8181 12 21.8181Z" fill="white"/>
<path d="M11.9997 5.09083C11.1978 5.09083 10.5455 5.74363 10.5455 6.54603C10.5455 7.3477 11.1978 7.99991 11.9997 7.99991C12.8016 7.99991 13.454 7.3477 13.454 6.54603C13.454 5.74363 12.8016 5.09083 11.9997 5.09083Z" fill="white"/>
<path d="M11.9999 10.1817C11.3974 10.1817 10.909 10.6702 10.909 11.2726V17.8181C10.909 18.4205 11.3974 18.909 11.9999 18.909C12.6024 18.909 13.0908 18.4205 13.0908 17.8181V11.2726C13.0908 10.6702 12.6024 10.1817 11.9999 10.1817Z" fill="white"/>
</g>
<defs>
<clipPath id="clip0_225_788">
<rect width="23.1286" height="23.1286" fill="white" transform="scale(1.03767)"/>
</clipPath>
</defs>
</svg>
