<svg width="24" height="24" viewBox="0 0 24 24" fill="none" xmlns="http://www.w3.org/2000/svg">
<g clip-path="url(#clip0_225_838)">
<path d="M21.1034 19.0994C21.0328 19.0536 20.5019 18.6816 19.9702 17.5564C18.9938 15.49 18.7889 12.5792 18.7889 10.5012C18.7889 10.4921 18.7887 10.4832 18.7884 10.4742C18.7778 7.72781 17.1332 5.36034 14.7799 4.29811V2.67356C14.7799 1.19934 13.5826 0 12.1108 0H11.8896C10.4178 0 9.22041 1.19934 9.22041 2.67356V4.29802C6.85922 5.36367 5.21143 7.74323 5.21143 10.5012C5.21143 12.5792 5.00649 15.49 4.03013 17.5564C3.49852 18.6816 2.96757 19.0535 2.89697 19.0994C2.59969 19.2369 2.45311 19.5548 2.52151 19.8768C2.59055 20.2021 2.89458 20.4263 3.2266 20.4263H8.38036C8.40915 22.4017 10.0214 24 12.0002 24C13.979 24 15.5912 22.4017 15.62 20.4263H20.7738C21.1058 20.4263 21.4098 20.2021 21.4789 19.8768C21.5472 19.5548 21.4006 19.2369 21.1034 19.0994V19.0994ZM10.6267 2.67356C10.6267 1.97602 11.1932 1.40855 11.8896 1.40855H12.1108C12.8072 1.40855 13.3737 1.97602 13.3737 2.67356V3.84155C12.9299 3.74981 12.4705 3.70153 12 3.70153C11.5297 3.70153 11.0704 3.74977 10.6268 3.84141V2.67356H10.6267ZM12.0002 22.5915C10.7968 22.5915 9.81516 21.625 9.78661 20.4264H14.2137C14.1852 21.625 13.2036 22.5915 12.0002 22.5915V22.5915ZM14.8314 19.0178C14.8313 19.0178 4.82902 19.0178 4.82902 19.0178C4.95066 18.8282 5.07446 18.6135 5.19751 18.371C6.13988 16.5127 6.61772 13.8649 6.61772 10.5012C6.61772 7.5285 9.03221 5.11008 12 5.11008C14.9677 5.11008 17.3822 7.5285 17.3822 10.5035C17.3822 10.5122 17.3823 10.5208 17.3827 10.5294C17.3853 13.8797 17.8631 16.518 18.8029 18.371C18.9259 18.6136 19.0498 18.8282 19.1714 19.0178H14.8314Z" fill="#F9703E"/>
<circle cx="19.0002" cy="19" r="5" fill="#0F263D"/>
</g>
<defs>
<clipPath id="clip0_225_838">
<rect width="23.0312" height="23.0312" fill="white" transform="scale(1.04206)"/>
</clipPath>
</defs>
</svg>
