<svg width="20" height="20" viewBox="0 0 20 20" fill="none" xmlns="http://www.w3.org/2000/svg">
<g clip-path="url(#clip0_204_348)">
<path d="M0.32008 19.1953L0.09384 19.431C-0.03128 19.5613 -0.03128 19.772 0.09384 19.9023C0.15624 19.9673 0.23816 20 0.32008 20C0.402 20 0.48392 19.9673 0.54632 19.9023L0.77256 19.6667C0.89768 19.5363 0.89768 19.3257 0.77256 19.1953C0.64744 19.065 0.4452 19.065 0.32008 19.1953Z" fill="white"/>
<path d="M4.50457 17.3333C4.32793 17.3333 4.18457 17.4823 4.18457 17.6667C4.18457 17.851 4.32793 18 4.50457 18H5.08729C5.26393 18 5.40729 17.851 5.40729 17.6667C5.40729 17.4823 5.26393 17.3333 5.08729 17.3333H4.50457Z" fill="white"/>
<path d="M6.25237 17.3333C6.07573 17.3333 5.93237 17.4823 5.93237 17.6667C5.93237 17.851 6.07573 18 6.25237 18H6.83477C7.01141 18 7.15477 17.851 7.15477 17.6667C7.15477 17.4823 7.01141 17.3333 6.83477 17.3333H6.25237Z" fill="white"/>
<path d="M2.75701 17.3333C2.58037 17.3333 2.43701 17.4823 2.43701 17.6667C2.43701 17.851 2.58037 18 2.75701 18H3.33941C3.51605 18 3.65941 17.851 3.65941 17.6667C3.65941 17.4823 3.51605 17.3333 3.33941 17.3333H2.75701Z" fill="white"/>
<path d="M2.00797 17.9083C1.88285 17.778 1.68061 17.778 1.55548 17.9083L1.14364 18.3373C1.01852 18.4677 1.01852 18.6783 1.14364 18.8087C1.20604 18.8737 1.28796 18.9063 1.36988 18.9063C1.4518 18.9063 1.53372 18.8737 1.59612 18.8087L2.00797 18.3797C2.13309 18.2493 2.13309 18.0383 2.00797 17.9083Z" fill="white"/>
<path d="M7.99993 17.3333C7.82329 17.3333 7.67993 17.4823 7.67993 17.6667C7.67993 17.851 7.82329 18 7.99993 18H8.31993C8.49657 18 8.63993 17.851 8.63993 17.6667C8.63993 17.4823 8.49657 17.3333 8.31993 17.3333H7.99993Z" fill="white"/>
<path d="M0.319912 17.9193C0.401832 17.9193 0.483752 17.8867 0.546152 17.8217L1.78647 16.5297C1.81687 16.498 1.85015 16.4697 1.89815 16.439L1.95991 16.4043C1.97111 16.3973 1.98199 16.3903 1.99383 16.385L2.11351 16.3467C2.15543 16.3383 2.19767 16.3333 2.23991 16.3333H7.03991C7.21655 16.3333 7.35991 16.1843 7.35991 16C7.35991 15.8157 7.21655 15.6667 7.03991 15.6667H2.23991C2.15799 15.6667 2.07383 15.6753 1.98679 15.693C1.95607 15.7 1.92663 15.7093 1.89751 15.7193L1.85559 15.7323C1.81975 15.7423 1.78391 15.7537 1.75127 15.7677C1.71319 15.784 1.67735 15.804 1.64183 15.8253L1.61143 15.8427C1.58423 15.857 1.55735 15.8717 1.52919 15.8913C1.45847 15.9403 1.39287 15.9967 1.33367 16.0583L0.0933517 17.3503C-0.0317683 17.4807 -0.0317683 17.6913 0.0933517 17.8217C0.156072 17.8867 0.237992 17.9193 0.319912 17.9193Z" fill="white"/>
<path d="M18.6538 16.2357C18.7357 16.2357 18.8177 16.203 18.8801 16.138L19.1063 15.9023C19.2314 15.772 19.2314 15.5613 19.1063 15.431C18.9812 15.3007 18.7789 15.3007 18.6538 15.431L18.4276 15.6667C18.3025 15.797 18.3025 16.0077 18.4276 16.138C18.49 16.203 18.5719 16.2357 18.6538 16.2357Z" fill="white"/>
<path d="M17.4611 16.6733L16.9779 17.1767C16.8528 17.307 16.8528 17.5177 16.9779 17.648C17.0403 17.713 17.1222 17.7457 17.2041 17.7457C17.286 17.7457 17.368 17.713 17.4304 17.648L17.9136 17.1447C18.0387 17.0143 18.0387 16.8037 17.9136 16.6733C17.7884 16.543 17.5862 16.543 17.4611 16.6733Z" fill="white"/>
<path d="M13.2065 17.3333C13.0298 17.3333 12.8865 17.4823 12.8865 17.6667C12.8865 17.851 13.0298 18 13.2065 18H13.8897C14.0663 18 14.2097 17.851 14.2097 17.6667C14.2097 17.4823 14.0663 17.3333 13.8897 17.3333H13.2065Z" fill="white"/>
<path d="M15.256 17.3333C15.0791 17.3333 14.936 17.4823 14.936 17.6667C14.936 17.851 15.0791 18 15.256 18H15.9392C16.1162 18 16.2592 17.851 16.2592 17.6667C16.2592 17.4823 16.1162 17.3333 15.9392 17.3333H15.256Z" fill="white"/>
<path d="M11.52 17.3333C11.3433 17.3333 11.2 17.4823 11.2 17.6667C11.2 17.851 11.3433 18 11.52 18H11.84C12.0166 18 12.16 17.851 12.16 17.6667C12.16 17.4823 12.0166 17.3333 11.84 17.3333H11.52Z" fill="white"/>
<path d="M18.6538 17.5117L17.4134 18.8037C17.3834 18.835 17.3504 18.863 17.3024 18.894L17.2422 18.928C17.2294 18.9353 17.217 18.9437 17.2042 18.949C17.1942 18.9533 17.1837 18.9557 17.1731 18.9587L17.0842 18.9867C17.0435 18.9953 17.0019 19 16.96 19H2.5248L2.03936 19.407C1.90176 19.5227 1.87968 19.7327 1.99072 19.8757C2.05376 19.9573 2.14656 20 2.24 20C2.3104 20 2.38144 19.976 2.44032 19.9263L2.7504 19.6667H16.96C17.0432 19.6667 17.1277 19.658 17.2093 19.6407C17.2419 19.634 17.2726 19.6243 17.3037 19.6137L17.3437 19.6013C17.3795 19.591 17.415 19.58 17.4509 19.5643C17.4883 19.548 17.5235 19.5283 17.5587 19.5073L17.5904 19.4893C17.6179 19.475 17.6448 19.46 17.6694 19.4427C17.7402 19.3937 17.8064 19.3373 17.8659 19.275L19.1062 17.983C19.2314 17.8527 19.2314 17.642 19.1062 17.5117C18.9811 17.3813 18.7789 17.3817 18.6538 17.5117Z" fill="white"/>
<path d="M12.48 16C12.48 16.1843 12.6233 16.3333 12.8 16.3333H16.695L17.7488 15.2357C17.8739 15.1053 17.8739 14.8947 17.7488 14.7643C17.6237 14.634 17.4214 14.634 17.2963 14.7643L16.4301 15.6667H12.8C12.6233 15.6667 12.48 15.8157 12.48 16Z" fill="white"/>
<path d="M9.97663 18.2523L14.8857 10.8667C16.727 8.30933 16.4605 4.10667 14.3158 1.87267C13.1568 0.665 11.6157 0 9.97663 0C8.33759 0 6.79647 0.665 5.63743 1.87233C3.49247 4.10633 3.22591 8.30967 5.06015 10.8563L9.97663 18.2523ZM10.0333 4C11.2685 4 12.2733 5.047 12.2733 6.33333C12.2733 7.61967 11.2685 8.66667 10.0333 8.66667C8.79807 8.66667 7.79327 7.61967 7.79327 6.33333C7.79327 5.047 8.79807 4 10.0333 4Z" fill="white"/>
</g>
<defs>
<clipPath id="clip0_204_348">
<rect width="19.2" height="20" fill="white"/>
</clipPath>
</defs>
</svg>
