<svg width="192" height="192" viewBox="0 0 192 192" fill="none" xmlns="http://www.w3.org/2000/svg">
<path d="M151.757 46.5002L136.781 37.8045C136.44 37.6061 136.047 37.5133 135.652 37.538L113.023 38.9521C112.53 38.9829 112.043 38.8301 111.656 38.523L83.8032 16.433C83.4496 16.1526 83.0117 16 82.5604 16L58.3742 16C57.9722 16 57.5796 15.8789 57.2475 15.6525L36.267 1.34755C35.9349 1.12112 35.5423 1 35.1403 1L18.3392 1C17.6641 1 17.0346 1.34052 16.6652 1.90551L1.28605 25.4266C0.707869 26.3109 0.917211 27.4924 1.76402 28.1241L189.729 168.36C190.584 168.998 190.788 170.196 190.191 171.081L176.757 191" stroke="#AD1D07" stroke-width="2" stroke-linecap="round" stroke-linejoin="round" stroke-dasharray="4 4"/>
</svg>
