<svg width="23" height="54" viewBox="0 0 23 54" fill="none" xmlns="http://www.w3.org/2000/svg">
<g opacity="0.3">
<path opacity="0.3" d="M19.7918 20.0317C19.0278 20.4381 18.1799 20.6617 17.3147 20.6848C16.4495 20.708 15.5907 20.53 14.8061 20.1651C14.0215 19.8001 13.3325 19.2581 12.7934 18.5817C12.2542 17.9053 11.8797 17.1131 11.6993 16.2675C11.5189 15.4219 11.5376 14.546 11.7539 13.7088C11.9702 12.8716 12.3782 12.0961 12.9457 11.4433C13.5133 10.7905 14.2248 10.2783 15.0243 9.94707C15.8237 9.61586 16.6893 9.47466 17.5527 9.53463L17.8174 12.3993L18.8193 9.7705C20.2297 10.2042 21.41 11.1796 22.1009 12.4823C22.3453 12.9383 22.5238 13.4265 22.6311 13.9326C22.886 15.1193 22.7467 16.3568 22.2344 17.4574C21.722 18.558 20.8645 19.4617 19.7918 20.0317V20.0317Z" fill="#0F263D"/>
<path opacity="0.3" d="M17.8004 53.9731C17.9332 51.4862 15.5681 49.6325 13.3347 48.5261C11.1012 47.4197 8.52827 46.3862 7.49833 44.1182C6.01813 40.8587 8.55055 37.3239 10.4845 34.3109C11.9193 32.075 13.0837 29.6771 13.9534 27.1673C14.3019 26.161 14.6055 25.1177 14.5839 24.053C14.5528 22.5199 13.8555 21.0884 13.1633 19.7197C10.8576 15.1599 8.4451 10.6561 5.9257 6.20844" stroke="#0F263D" stroke-miterlimit="10"/>
<path opacity="0.3" d="M19.4602 19.3316C18.6963 19.7379 17.8483 19.9615 16.9831 19.9846C16.1179 20.0078 15.2592 19.8299 14.4746 19.4649C13.69 19.0999 13.001 18.5579 12.4618 17.8815C11.9227 17.2052 11.5482 16.413 11.3678 15.5673C11.1874 14.7217 11.2061 13.8458 11.4224 13.0086C11.6387 12.1714 12.0467 11.3959 12.6142 10.7431C13.1817 10.0903 13.8933 9.57813 14.6927 9.24691C15.4922 8.9157 16.3577 8.77451 17.2211 8.83448L17.4858 11.6992L18.4877 9.07034C19.8981 9.50407 21.0785 10.4795 21.7693 11.7821C22.0138 12.2381 22.1922 12.7264 22.2995 13.2324C22.5544 14.4192 22.4152 15.6566 21.9028 16.7572C21.3905 17.8578 20.533 18.7616 19.4602 19.3316V19.3316Z" stroke="#0F263D" stroke-miterlimit="10"/>
<path opacity="0.3" d="M11.4688 4.4223C11.0293 3.5958 10.3886 2.89309 9.60581 2.37894C8.823 1.8648 7.92326 1.55575 6.98947 1.48027L6.91714 4.24945L5.66994 1.52817C4.49964 1.71139 3.41789 2.26142 2.5809 3.09883C1.7439 3.93624 1.19496 5.01772 1.01332 6.18711C0.831693 7.3565 1.02677 8.55329 1.57039 9.6047C2.11402 10.6561 2.97806 11.5078 4.03776 12.0366C5.09746 12.5655 6.298 12.7443 7.46604 12.5471C8.63407 12.35 9.70917 11.7871 10.5361 10.9398C11.363 10.0924 11.899 9.00448 12.0667 7.83301C12.2343 6.66154 12.025 5.46716 11.4688 4.4223V4.4223Z" fill="#0F263D"/>
<path opacity="0.3" d="M11.0268 3.48859C10.5873 2.66209 9.94657 1.95938 9.16377 1.44523C8.38096 0.931087 7.48121 0.62203 6.54742 0.546546L6.47509 3.31573L5.2279 0.594467C4.05759 0.777684 2.97585 1.32771 2.13885 2.16512C1.30185 3.00253 0.752909 4.08399 0.571277 5.25338C0.389645 6.42277 0.584723 7.61957 1.12835 8.67099C1.67197 9.7224 2.53601 10.574 3.59571 11.1029C4.65541 11.6318 5.85595 11.8106 7.02399 11.6134C8.19202 11.4162 9.26711 10.8534 10.094 10.006C10.921 9.15871 11.457 8.07077 11.6246 6.8993C11.7923 5.72783 11.5829 4.53344 11.0268 3.48859V3.48859Z" stroke="#0F263D" stroke-miterlimit="10"/>
<path opacity="0.3" d="M11.4639 34.2283C10.2522 34.8718 8.84593 35.0473 7.51301 34.7215C6.18009 34.3957 5.01378 33.5914 4.23638 32.4617C3.45899 31.3321 3.12486 29.9562 3.2977 28.5962C3.47055 27.2363 4.13826 25.9875 5.17358 25.0878L6.13195 27.179L6.2044 24.3773C6.20864 24.3745 6.2131 24.372 6.21772 24.3699C6.86574 24.0253 7.57539 23.8115 8.30612 23.7409C9.03686 23.6703 9.77436 23.7443 10.4765 23.9585C11.1786 24.1728 11.8316 24.5231 12.3981 24.9896C12.9646 25.456 13.4336 26.0294 13.7782 26.677C14.1228 27.3246 14.3363 28.0337 14.4065 28.7637C14.4767 29.4937 14.4022 30.2304 14.1873 30.9317C13.9724 31.633 13.6212 32.2851 13.1539 32.8507C12.6867 33.4164 12.1124 33.8845 11.4639 34.2283V34.2283Z" fill="#0F263D"/>
<path opacity="0.3" d="M11.0604 33.2763C9.8487 33.9198 8.44237 34.0953 7.10944 33.7695C5.77652 33.4437 4.61021 32.6393 3.83282 31.5097C3.05542 30.3801 2.7213 29.0042 2.89414 27.6442C3.06698 26.2843 3.7347 25.0355 4.77003 24.1357L5.7284 26.227L5.80084 23.4252C5.80508 23.4224 5.80954 23.42 5.81417 23.4179C6.46217 23.0734 7.17177 22.8598 7.90243 22.7893C8.63309 22.7188 9.3705 22.7928 10.0725 23.0071C10.7745 23.2214 11.4274 23.5718 11.9939 24.0382C12.5603 24.5046 13.0292 25.078 13.3738 25.7255C13.7183 26.373 13.9318 27.0819 14.002 27.8119C14.0723 28.5418 13.9978 29.2785 13.783 29.9797C13.5682 30.6809 13.2171 31.3329 12.75 31.8986C12.2828 32.4642 11.7087 32.9324 11.0604 33.2763V33.2763Z" stroke="#0F263D" stroke-miterlimit="10"/>
<path opacity="0.3" d="M18.5248 42.5934C18.4821 43.8728 18.0003 45.0986 17.1603 46.0653C16.3202 47.032 15.173 47.6807 13.911 47.9027C12.649 48.1246 11.3489 47.9064 10.2289 47.2845C9.10885 46.6626 8.23693 45.6748 7.75934 44.487C7.28176 43.2991 7.22756 41.9833 7.60584 40.7602C7.98412 39.5371 8.77188 38.4812 9.83699 37.7695C10.9021 37.0577 12.1798 36.7335 13.4558 36.8512C14.7318 36.9688 15.9285 37.5212 16.8452 38.4157L14.9052 42.4711L17.9949 40.0273C18.3747 40.8279 18.5565 41.708 18.5248 42.5934V42.5934Z" fill="#0F263D"/>
<path opacity="0.3" d="M18.1933 41.893C18.1505 43.1724 17.6688 44.3983 16.8287 45.3649C15.9887 46.3316 14.8414 46.9803 13.5794 47.2023C12.3174 47.4243 11.0174 47.206 9.89735 46.5841C8.77731 45.9622 7.90539 44.9745 7.42781 43.7866C6.95023 42.5987 6.89603 41.2829 7.27431 40.0598C7.65259 38.8368 8.44034 37.7808 9.50545 37.0691C10.5706 36.3574 11.8482 36.0332 13.1242 36.1508C14.4002 36.2685 15.5969 36.8209 16.5136 37.7153L14.5736 41.7707L17.6633 39.3269C18.0432 40.1275 18.2249 41.0076 18.1933 41.893V41.893Z" stroke="#0F263D" stroke-miterlimit="10"/>
</g>
</svg>
