<svg width="109" height="109" viewBox="0 0 109 109" fill="none" xmlns="http://www.w3.org/2000/svg">
<g filter="url(#filter0_d_225_612)">
<rect x="35.2109" y="35.2109" width="38.5782" height="38.5782" rx="4" fill="white"/>
</g>
<g clip-path="url(#clip0_225_612)">
<path d="M60.244 50.0438C59.5523 49.7665 59.3525 49.5988 59.3525 49.296C59.3525 49.0537 59.536 48.7707 60.0535 48.7707C60.5111 48.7707 60.8621 48.9511 60.8652 48.9527C60.9022 48.9724 60.9436 48.9829 60.9846 48.9829C61.0848 48.9829 61.1734 48.9223 61.2101 48.8285L61.3358 48.5071C61.3796 48.39 61.3132 48.2879 61.2285 48.2513C60.9467 48.1287 60.396 48.0338 60.3904 48.0328C60.3815 48.0312 60.3507 48.0246 60.3507 47.9886L60.3489 47.5224C60.3489 47.382 60.2317 47.2677 60.0878 47.2677H59.8622C59.7184 47.2677 59.6013 47.3819 59.6013 47.5224L59.6019 48.0126C59.6019 48.0501 59.5611 48.0665 59.5463 48.0699C58.8511 48.2355 58.4167 48.7447 58.4167 49.387C58.4167 50.1877 59.0786 50.5495 59.7932 50.8211C60.3645 51.0454 60.5976 51.2728 60.5976 51.6064C60.5976 51.9694 60.2675 52.2229 59.7946 52.2229C59.3909 52.2229 58.8444 51.967 58.839 51.9644C58.804 51.9478 58.767 51.9394 58.7289 51.9394C58.6249 51.9394 58.5343 52.0023 58.4981 52.0997L58.3781 52.4248C58.3354 52.5461 58.4011 52.6446 58.4852 52.6885C58.8208 52.8632 59.4702 52.9657 59.4991 52.9702C59.5069 52.9713 59.5464 52.9852 59.5464 53.0213V53.5093C59.5464 53.6497 59.6636 53.764 59.8076 53.764H60.0407C60.1847 53.764 60.3019 53.6498 60.3019 53.5093V52.9957C60.3019 52.9477 60.3374 52.9435 60.3447 52.9417C61.0852 52.7754 61.5414 52.2335 61.5414 51.5532C61.5412 50.8544 61.1531 50.4029 60.244 50.0438Z" fill="#343B71"/>
<path d="M59.9529 44.395C56.5724 44.395 53.8322 47.1355 53.8322 50.5157C53.8322 53.8961 56.5724 56.6366 59.9529 56.6366C63.3332 56.6366 66.0735 53.8961 66.0735 50.5157C66.0735 47.1355 63.3332 44.395 59.9529 44.395ZM59.9529 55.218C57.3558 55.218 55.2506 53.1127 55.2506 50.5158C55.2506 47.9189 57.3558 45.8136 59.9529 45.8136C62.5498 45.8136 64.6549 47.9189 64.6549 50.5158C64.6549 53.1127 62.5498 55.218 59.9529 55.218Z" fill="#343B71"/>
<path d="M64.8297 59.6026C63.5281 60.3209 61.738 60.9851 59.9528 61.2651C58.3644 61.5142 55.3763 60.9135 55.3763 60.204C55.3763 59.9352 57.997 60.8665 59.5823 60.4435C60.7979 60.1192 60.6253 58.9821 59.9641 58.8321C59.3068 58.6829 55.4555 57.272 53.8105 57.2233C53.0356 57.2004 51.1224 57.4928 50.1967 57.6436C49.8795 57.6952 49.6807 57.6895 49.6608 57.993C49.5687 59.4035 49.3872 62.2879 49.2882 63.7946C49.2861 63.8264 49.3303 64.2545 49.6836 63.9532C50.0703 63.6235 50.6126 63.258 51.1143 63.3718C51.9012 63.5504 58.7098 64.7977 59.6489 64.5794C60.9924 64.2671 64.7955 62.0132 65.5247 61.3127C66.6549 60.2266 65.7764 59.0801 64.8297 59.6026Z" fill="#343B71"/>
<path d="M47.7821 57.5886L44.2153 57.4128C43.9399 57.3993 43.6587 57.6068 43.5902 57.8738L42.9417 63.7621C42.8733 64.0292 43.0428 64.2565 43.3183 64.2671L47.2712 64.2667C47.5468 64.2773 47.7893 64.0611 47.8105 63.7862L48.2446 58.1131C48.2656 57.8382 48.0575 57.6022 47.7821 57.5886ZM45.6823 63.4866C45.1376 63.4866 44.6961 63.0451 44.6961 62.5005C44.6961 61.9558 45.1377 61.5143 45.6823 61.5143C46.2269 61.5143 46.6685 61.9558 46.6685 62.5005C46.6685 63.0451 46.227 63.4866 45.6823 63.4866Z" fill="#343B71"/>
</g>
<defs>
<filter id="filter0_d_225_612" x="0" y="0" width="109" height="109" filterUnits="userSpaceOnUse" color-interpolation-filters="sRGB">
<feFlood flood-opacity="0" result="BackgroundImageFix"/>
<feColorMatrix in="SourceAlpha" type="matrix" values="0 0 0 0 0 0 0 0 0 0 0 0 0 0 0 0 0 0 127 0" result="hardAlpha"/>
<feOffset/>
<feGaussianBlur stdDeviation="17.5"/>
<feColorMatrix type="matrix" values="0 0 0 0 0.831373 0 0 0 0 0.831373 0 0 0 0 0.831373 0 0 0 0.4 0"/>
<feBlend mode="normal" in2="BackgroundImageFix" result="effect1_dropShadow_225_612"/>
<feBlend mode="normal" in="SourceGraphic" in2="effect1_dropShadow_225_612" result="shape"/>
</filter>
<clipPath id="clip0_225_612">
<rect width="23.0083" height="23.0083" fill="white" transform="translate(42.9265 42.9265) scale(1.00603)"/>
</clipPath>
</defs>
</svg>
