<svg width="16" height="16" viewBox="0 0 16 16" fill="none" xmlns="http://www.w3.org/2000/svg">
<g clip-path="url(#clip0_208_981)">
<path d="M15.6524 7.28234C15.9674 6.97541 16.0786 6.52495 15.9427 6.10621C15.8066 5.68746 15.4519 5.38855 15.0162 5.32511L11.1421 4.76219C10.9771 4.73817 10.8345 4.63468 10.7608 4.48506L9.02882 0.97493C8.83435 0.580537 8.43963 0.335443 7.99974 0.335443C7.56018 0.335443 7.16546 0.580537 6.97099 0.97493L5.23867 4.48538C5.16498 4.635 5.02209 4.73849 4.85709 4.76251L0.983005 5.32543C0.547603 5.38855 0.192617 5.68778 0.0564533 6.10653C-0.0793897 6.52527 0.0317837 6.97573 0.346722 7.28266L3.14977 10.0149C3.26927 10.1315 3.32405 10.2994 3.29586 10.4634L2.63459 14.3215C2.57596 14.6611 2.66502 14.9914 2.88481 15.2519C3.22634 15.6578 3.82257 15.7815 4.2993 15.531L7.76394 13.7092C7.90876 13.6333 8.09105 13.634 8.23555 13.7092L11.7005 15.531C11.869 15.6197 12.0488 15.6646 12.2343 15.6646C12.5729 15.6646 12.8939 15.514 13.1147 15.2519C13.3348 14.9914 13.4235 14.6605 13.3649 14.3215L12.7033 10.4634C12.6751 10.2991 12.7299 10.1315 12.8494 10.0149L15.6524 7.28234Z" fill="#FFAA2A"/>
</g>
<defs>
<clipPath id="clip0_208_981">
<rect width="15.36" height="15.36" fill="white" transform="scale(1.04167)"/>
</clipPath>
</defs>
</svg>
