<svg width="39" height="92" viewBox="0 0 39 92" fill="none" xmlns="http://www.w3.org/2000/svg">
<g opacity="0.3">
<path opacity="0.3" d="M5.07169 33.8896C6.37902 34.585 7.83016 34.9676 9.31075 35.0072C10.7913 35.0468 12.2609 34.7423 13.6036 34.1178C14.9463 33.4932 16.1255 32.5656 17.0481 31.4082C17.9707 30.2507 18.6116 28.895 18.9203 27.4479C19.229 26.0007 19.197 24.5018 18.8268 23.0691C18.4567 21.6364 17.7585 20.3093 16.7873 19.1921C15.8161 18.075 14.5985 17.1985 13.2303 16.6317C11.8622 16.0649 10.381 15.8233 8.90342 15.9259L8.45053 20.8282L6.7359 16.3295C4.32227 17.0718 2.30238 18.741 1.12009 20.9702C0.701829 21.7505 0.396374 22.5861 0.212836 23.4521C-0.22342 25.483 0.0148996 27.6006 0.891684 29.4841C1.76847 31.3675 3.23593 32.9142 5.07169 33.8896V33.8896Z" fill="#0F263D"/>
<path opacity="0.3" d="M8.47929 91.9732C8.25205 87.7173 12.2994 84.5452 16.1215 82.6518C19.9436 80.7585 24.3467 78.9897 26.1092 75.1086C28.6423 69.5306 24.3085 63.4814 20.9989 58.3253C18.5437 54.499 16.551 50.3954 15.0627 46.1005C14.4662 44.3784 13.9467 42.5929 13.9837 40.771C14.0369 38.1473 15.2302 35.6977 16.4147 33.3553C20.3604 25.5522 24.489 17.8449 28.8005 10.2336" stroke="#0F263D" stroke-miterlimit="10"/>
<path opacity="0.3" d="M5.63938 32.6911C6.9467 33.3866 8.39785 33.7692 9.87844 33.8088C11.359 33.8484 12.8286 33.5439 14.1713 32.9193C15.514 32.2948 16.6931 31.3672 17.6158 30.2097C18.5384 29.0523 19.1793 27.6966 19.488 26.2494C19.7967 24.8023 19.7647 23.3033 19.3945 21.8707C19.0244 20.438 18.3262 19.1108 17.355 17.9937C16.3838 16.8766 15.1662 16.0001 13.798 15.4333C12.4299 14.8664 10.9487 14.6248 9.47112 14.7274L9.01822 19.6298L7.30359 15.1311C4.88996 15.8733 2.87007 17.5425 1.68778 19.7718C1.26952 20.5521 0.964065 21.3877 0.780528 22.2536C0.34427 24.2846 0.58259 26.4022 1.45937 28.2857C2.33616 30.1691 3.80362 31.7157 5.63938 32.6911V32.6911Z" stroke="#0F263D" stroke-miterlimit="10"/>
<path opacity="0.3" d="M19.3145 7.17701C20.0666 5.76261 21.163 4.56009 22.5026 3.68023C23.8422 2.80037 25.382 2.27148 26.98 2.1423L27.1037 6.88123L29.2381 2.22431C31.2408 2.53785 33.092 3.47909 34.5243 4.91216C35.9567 6.34522 36.8961 8.19595 37.2069 10.1971C37.5177 12.1983 37.1839 14.2464 36.2536 16.0456C35.3233 17.8449 33.8447 19.3023 32.0312 20.2074C30.2177 21.1125 28.1633 21.4184 26.1644 21.081C24.1656 20.7436 22.3258 19.7803 20.9106 18.3303C19.4955 16.8803 18.5783 15.0185 18.2914 13.0138C18.0045 11.009 18.3627 8.96507 19.3145 7.17701H19.3145Z" fill="#0F263D"/>
<path opacity="0.3" d="M20.0714 5.57919C20.8235 4.1648 21.9199 2.96227 23.2595 2.08241C24.5991 1.20255 26.1389 0.673666 27.7369 0.54449L27.8607 5.2834L29.995 0.626493C31.9977 0.940036 33.8489 1.88128 35.2812 3.31434C36.7136 4.7474 37.653 6.59813 37.9638 8.5993C38.2746 10.6005 37.9408 12.6485 37.0105 14.4478C36.0802 16.2471 34.6016 17.7045 32.7881 18.6096C30.9747 19.5146 28.9202 19.8205 26.9213 19.4831C24.9225 19.1458 23.0827 18.1825 21.6675 16.7325C20.2524 15.2825 19.3352 13.4207 19.0483 11.4159C18.7614 9.41121 19.1197 7.36725 20.0714 5.57919H20.0714Z" stroke="#0F263D" stroke-miterlimit="10"/>
<path opacity="0.3" d="M19.3238 58.1841C21.3974 59.2852 23.804 59.5857 26.085 59.0281C28.3661 58.4706 30.362 57.094 31.6923 55.1609C33.0227 53.2277 33.5945 50.8731 33.2987 48.5459C33.0029 46.2187 31.8602 44.0815 30.0885 42.5418L28.4484 46.1205L28.3245 41.3259C28.3172 41.3212 28.3096 41.317 28.3017 41.3134C27.1928 40.7245 25.9787 40.3596 24.7286 40.2394C23.4785 40.1193 22.217 40.2463 21.0161 40.6132C19.8152 40.98 18.6984 41.5796 17.7294 42.3777C16.7604 43.1757 15.9583 44.1567 15.3688 45.2644C14.7793 46.3721 14.414 47.585 14.2937 48.8338C14.1735 50.0826 14.3006 51.3428 14.6678 52.5425C15.0351 53.7422 15.6353 54.8579 16.4342 55.8259C17.2331 56.7939 18.215 57.5952 19.3238 58.1841V58.1841Z" fill="#0F263D"/>
<path opacity="0.3" d="M20.0139 56.5548C22.0874 57.656 24.4941 57.9564 26.7751 57.3989C29.0561 56.8413 31.052 55.4648 32.3824 53.5316C33.7128 51.5985 34.2845 49.2439 33.9888 46.9167C33.693 44.5894 32.5503 42.4523 30.7786 40.9126L29.1385 44.4913L29.0145 39.6967C29.0073 39.6919 28.9996 39.6877 28.9917 39.6841C27.8829 39.0953 26.6687 38.7303 25.4187 38.6102C24.1686 38.49 22.9071 38.617 21.7062 38.9839C20.5053 39.3508 19.3884 39.9504 18.4195 40.7484C17.4505 41.5465 16.6484 42.5274 16.0589 43.6351C15.4694 44.7429 15.1041 45.9558 14.9838 47.2045C14.8635 48.4533 14.9907 49.7135 15.3579 50.9132C15.7252 52.113 16.3254 53.2286 17.1243 54.1966C17.9231 55.1646 18.905 55.9659 20.0139 56.5548V56.5548Z" stroke="#0F263D" stroke-miterlimit="10"/>
<path opacity="0.3" d="M7.23955 72.4991C7.31266 74.6886 8.13714 76.7863 9.57472 78.4406C11.0123 80.0948 12.9755 81.205 15.1352 81.5849C17.2949 81.9647 19.5196 81.5912 21.4364 80.5269C23.3531 79.4627 24.8452 77.7724 25.6625 75.7396C26.4798 73.7068 26.5725 71.455 25.9252 69.362C25.2778 67.2689 23.9298 65.4619 22.107 64.244C20.2843 63.026 18.0978 62.4711 15.9142 62.6725C13.7306 62.8738 11.6827 63.8191 10.1139 65.3498L13.4339 72.2898L8.14644 68.1078C7.49638 69.4778 7.18536 70.9839 7.23955 72.4991V72.4991Z" fill="#0F263D"/>
<path opacity="0.3" d="M7.80725 71.3007C7.88035 73.4902 8.70483 75.5879 10.1424 77.2422C11.58 78.8964 13.5432 80.0066 15.7029 80.3865C17.8626 80.7663 20.0873 80.3928 22.0041 79.3285C23.9208 78.2643 25.4129 76.574 26.2302 74.5412C27.0475 72.5084 27.1402 70.2566 26.4929 68.1636C25.8455 66.0705 24.4974 64.2635 22.6747 63.0455C20.852 61.8276 18.6655 61.2727 16.4819 61.4741C14.2983 61.6754 12.2503 62.6207 10.6816 64.1514L14.0016 71.0914L8.71413 66.9094C8.06407 68.2794 7.75305 69.7855 7.80725 71.3007V71.3007Z" stroke="#0F263D" stroke-miterlimit="10"/>
</g>
</svg>
