<svg width="16" height="16" viewBox="0 0 16 16" fill="none" xmlns="http://www.w3.org/2000/svg">
<g clip-path="url(#clip0_227_1285)">
<path d="M15.6524 7.28228C15.9674 6.97535 16.0785 6.52489 15.9427 6.10615C15.8065 5.68741 15.4519 5.38849 15.0161 5.32505L11.1421 4.76214C10.9771 4.73811 10.8345 4.63462 10.7608 4.485L9.02881 0.974878C8.83433 0.580486 8.43962 0.335392 7.99973 0.335392C7.56017 0.335392 7.16545 0.580486 6.97098 0.974878L5.23866 4.48533C5.16497 4.63494 5.02208 4.73843 4.85709 4.76246L0.983003 5.32537C0.547601 5.38849 0.192616 5.68773 0.0564525 6.10647C-0.0793903 6.52521 0.031783 6.97567 0.34672 7.2826L3.14976 10.0148C3.26926 10.1315 3.32405 10.2993 3.29586 10.4634L2.63458 14.3214C2.57595 14.661 2.66502 14.9914 2.8848 15.2518C3.22633 15.6578 3.82257 15.7814 4.2993 15.5309L7.76393 13.7092C7.90874 13.6332 8.09104 13.6339 8.23554 13.7092L11.7005 15.5309C11.869 15.6196 12.0487 15.6645 12.2342 15.6645C12.5729 15.6645 12.8939 15.5139 13.1147 15.2518C13.3348 14.9914 13.4235 14.6604 13.3649 14.3214L12.7033 10.4634C12.6751 10.299 12.7299 10.1315 12.8494 10.0148L15.6524 7.28228Z" fill="#FFAA2A"/>
</g>
<defs>
<clipPath id="clip0_227_1285">
<rect width="15.3388" height="15.3388" fill="white" transform="scale(1.0431)"/>
</clipPath>
</defs>
</svg>
