<svg width="41" height="41" viewBox="0 0 41 41" fill="none" xmlns="http://www.w3.org/2000/svg">
<path d="M5.90326 6.60274V17.0267C5.90326 17.4431 6.24086 17.7804 6.65704 17.7804H17.0812C17.4974 17.7804 17.835 17.4431 17.835 17.0267V15.0501C17.835 14.6337 17.4974 14.2963 17.0812 14.2963C16.665 14.2963 16.3276 14.6337 16.3276 15.0501V16.2731H7.41082V7.35629H16.3276V9.17095C16.3276 9.58737 16.665 9.92496 17.0812 9.92496C17.4974 9.92496 17.835 9.58737 17.835 9.17095V6.60274C17.835 6.18632 17.4974 5.84896 17.0812 5.84896H6.65704C6.24086 5.84896 5.90326 6.18632 5.90326 6.60274V6.60274Z" fill="#F9703E"/>
<path d="M10.3052 9.49753C9.88877 9.49753 9.55164 9.83489 9.55164 10.2511V13.3783C9.55164 13.7945 9.88877 14.1321 10.3052 14.1321H13.4324C13.8486 14.1321 14.1862 13.7945 14.1862 13.3783V10.2511C14.1862 9.83489 13.8486 9.49753 13.4324 9.49753H10.3052ZM12.6789 12.6248H11.059V11.0049H12.6789V12.6248Z" fill="#F9703E"/>
<path d="M17.0812 23.1632H6.65704C6.24086 23.1632 5.90326 23.5006 5.90326 23.9167V34.3411C5.90326 34.7573 6.24086 35.0947 6.65704 35.0947H17.0812C17.4974 35.0947 17.835 34.7573 17.835 34.3411V23.9167C17.835 23.5006 17.4974 23.1632 17.0812 23.1632V23.1632ZM16.3276 33.5873H7.41082V24.6705H16.3276V33.5873Z" fill="#F9703E"/>
<path d="M24.0232 17.7804H34.4475C34.8635 17.7804 35.2011 17.4431 35.2011 17.0267V6.60274C35.2011 6.18632 34.8635 5.84896 34.4475 5.84896H24.0232C23.607 5.84896 23.2694 6.18632 23.2694 6.60274V17.0267C23.2694 17.4431 23.607 17.7804 24.0232 17.7804V17.7804ZM24.7767 7.35629H33.6935V16.2731H24.7767V7.35629Z" fill="#F9703E"/>
<path d="M35.2011 34.3411V23.9167C35.2011 23.5006 34.8635 23.1632 34.4475 23.1632H24.0232C23.607 23.1632 23.2694 23.5006 23.2694 23.9167V34.3411C23.2694 34.7573 23.607 35.0947 24.0232 35.0947H34.4475C34.8635 35.0947 35.2011 34.7573 35.2011 34.3411ZM33.6935 33.5873H24.7767V24.6705H33.6935V33.5873Z" fill="#F9703E"/>
<path d="M34.4478 21.2712C34.8637 21.2712 35.2013 20.9336 35.2013 20.5175C35.2013 20.101 34.8637 19.7639 34.4478 19.7639H21.233V6.51937C21.233 6.10318 20.8954 5.76559 20.4795 5.76559C20.0628 5.76559 19.7255 6.10318 19.7255 6.51937V19.7639H9.72151C9.30555 19.7639 8.96796 20.1013 8.96796 20.5175C8.96796 20.9339 9.30555 21.2712 9.72151 21.2712H19.7255V34.3412C19.7255 34.7574 20.0628 35.0948 20.4795 35.0948C20.8954 35.0948 21.233 34.7574 21.233 34.3412V21.2712H34.4478Z" fill="#F9703E"/>
<path d="M10.3052 31.5023H13.4324C13.8486 31.5023 14.1862 31.1647 14.1862 30.7485V27.6213C14.1862 27.2049 13.8486 26.8677 13.4324 26.8677H10.3052C9.88877 26.8677 9.55164 27.2049 9.55164 27.6213V30.7485C9.55164 31.1647 9.88877 31.5023 10.3052 31.5023V31.5023ZM11.059 28.3751H12.6789V29.995H11.059V28.3751Z" fill="#F9703E"/>
<path d="M30.7988 9.49753H27.6715C27.2554 9.49753 26.9178 9.83489 26.9178 10.2511V13.3783C26.9178 13.7945 27.2554 14.1321 27.6715 14.1321H30.7988C31.2152 14.1321 31.5526 13.7945 31.5526 13.3783V10.2511C31.5526 9.83489 31.2152 9.49753 30.7988 9.49753ZM30.045 12.6248H28.4256V11.0049H30.045V12.6248Z" fill="#F9703E"/>
<path d="M27.6715 31.5023H30.7988C31.2152 31.5023 31.5526 31.1647 31.5526 30.7485V27.6213C31.5526 27.2049 31.2152 26.8677 30.7988 26.8677H27.6715C27.2554 26.8677 26.9178 27.2049 26.9178 27.6213V30.7485C26.9178 31.1647 27.2554 31.5023 27.6715 31.5023V31.5023ZM28.4256 28.3751H30.045V29.995H28.4256V28.3751Z" fill="#F9703E"/>
<path d="M6.50449 19.767L6.4639 19.7763C6.05874 19.8721 5.80771 20.2779 5.9032 20.6831C5.98507 21.0301 6.29452 21.2642 6.6361 21.2642C6.69358 21.2642 6.75152 21.2574 6.8097 21.2436L6.85006 21.2342C7.25545 21.1387 7.50647 20.7328 7.41076 20.3277C7.31551 19.9227 6.90964 19.6717 6.50449 19.767Z" fill="#F9703E"/>
<path d="M16.9294 11.3584L16.8889 11.368C16.4837 11.463 16.2324 11.8686 16.3274 12.274C16.4086 12.6215 16.7183 12.8559 17.0606 12.8559C17.1174 12.8559 17.1751 12.8493 17.2333 12.8354L17.2736 12.8261C17.679 12.731 17.9303 12.3252 17.8352 11.9203C17.7402 11.5151 17.3344 11.2634 16.9294 11.3584Z" fill="#F9703E"/>
<path d="M2.01463 7.47472C2.43129 7.47472 2.76842 7.13736 2.76842 6.72117V2.80846H6.53873C6.95515 2.80846 7.29274 2.47133 7.29274 2.05491C7.29274 1.63873 6.95515 1.30113 6.53873 1.30113H2.01463C1.59868 1.30113 1.26109 1.63873 1.26109 2.05491V6.72117C1.26109 7.13736 1.59868 7.47472 2.01463 7.47472Z" fill="#F9703E"/>
<path d="M38.9452 1.30113H34.4211C34.0046 1.30113 33.667 1.63873 33.667 2.05491C33.667 2.47133 34.0046 2.80846 34.4211 2.80846H38.1914V6.72117C38.1914 7.13736 38.5285 7.47472 38.9452 7.47472C39.3611 7.47472 39.6987 7.13736 39.6987 6.72117V2.05491C39.6987 1.63873 39.3611 1.30113 38.9452 1.30113V1.30113Z" fill="#F9703E"/>
<path d="M6.53873 38.1989H2.76842V34.2864C2.76842 33.8705 2.43129 33.5329 2.01463 33.5329C1.59868 33.5329 1.26109 33.8705 1.26109 34.2864V38.9527C1.26109 39.3689 1.59868 39.7065 2.01463 39.7065H6.53873C6.95515 39.7065 7.29274 39.3689 7.29274 38.9527C7.29274 38.5363 6.95515 38.1989 6.53873 38.1989V38.1989Z" fill="#F9703E"/>
<path d="M38.9452 33.5329C38.5285 33.5329 38.1914 33.8705 38.1914 34.2864V38.1989H34.4211C34.0046 38.1989 33.667 38.5363 33.667 38.9527C33.667 39.3689 34.0046 39.7065 34.4211 39.7065H38.9452C39.3611 39.7065 39.6987 39.3689 39.6987 38.9527V34.2864C39.6987 33.8705 39.3611 33.5329 38.9452 33.5329V33.5329Z" fill="#F9703E"/>
</svg>
