<svg width="24" height="24" viewBox="0 0 24 24" fill="none" xmlns="http://www.w3.org/2000/svg">
<g clip-path="url(#clip0_227_1521)">
<path d="M23 5.00004H0.999999C0.447715 5.00004 0 5.44776 0 6.00004C0 6.55232 0.447716 7.00004 1 7.00004H23C23.5522 7.00004 24 6.55232 24 6.00004C24 5.44776 23.5522 5.00004 23 5.00004Z" fill="white"/>
<path d="M19.9998 11H3.99987C3.44759 11 2.99987 11.4478 2.99987 12C2.99987 12.5523 3.44758 13 3.99987 13H19.9998C20.5521 13 20.9998 12.5523 20.9998 12C20.9998 11.4478 20.5521 11 19.9998 11Z" fill="white"/>
<path d="M15.9999 17H7.99996C7.44767 17 6.99996 17.4478 6.99996 18C6.99996 18.5523 7.44767 19 7.99996 19H15.9999C16.5522 19 16.9999 18.5523 16.9999 18C16.9999 17.4478 16.5522 17 15.9999 17Z" fill="white"/>
</g>
<defs>
<clipPath id="clip0_227_1521">
<rect width="23.04" height="23.04" fill="white" transform="scale(1.04166)"/>
</clipPath>
</defs>
</svg>
