<svg width="24" height="24" viewBox="0 0 24 24" fill="none" xmlns="http://www.w3.org/2000/svg">
<g clip-path="url(#clip0_225_740)">
<path d="M12 0C5.38319 0 0 5.38319 0 12C0 18.6167 5.38319 23.9999 12 23.9999C18.6167 23.9999 23.9999 18.6167 23.9999 12C23.9999 5.38319 18.6167 0 12 0ZM12 21.4465C6.79117 21.4465 2.55314 17.209 2.55314 12C2.55314 6.79092 6.79117 2.55339 12 2.55339C17.2088 2.55339 21.4468 6.79092 21.4468 12C21.4468 17.209 17.2088 21.4465 12 21.4465Z" fill="white"/>
<path d="M18.2539 11.6294H12.861V5.14528C12.861 4.59962 12.4186 4.15722 11.873 4.15722C11.3273 4.15722 10.8849 4.59962 10.8849 5.14528V12.6175C10.8849 13.1631 11.3273 13.6055 11.873 13.6055H18.2539C18.7995 13.6055 19.2419 13.1631 19.2419 12.6175C19.2419 12.0718 18.7995 11.6294 18.2539 11.6294Z" fill="white"/>
</g>
<defs>
<clipPath id="clip0_225_740">
<rect width="23.1286" height="23.1286" fill="white" transform="scale(1.03767)"/>
</clipPath>
</defs>
</svg>
