<svg width="20" height="20" viewBox="0 0 20 20" fill="none" xmlns="http://www.w3.org/2000/svg">
<g clip-path="url(#clip0_225_521)">
<path d="M9.6 0C4.30656 0 0 4.486 0 10C0 15.514 4.30656 20 9.6 20C14.8934 20 19.2 15.514 19.2 10C19.2 4.486 14.8934 0 9.6 0ZM9.6 17.8722C5.43295 17.8722 2.04252 14.3409 2.04252 10C2.04252 5.65912 5.43295 2.12783 9.6 2.12783C13.767 2.12783 17.1575 5.65912 17.1575 10C17.1575 14.3409 13.767 17.8722 9.6 17.8722Z" fill="white"/>
<path d="M14.6032 9.6912H10.2889V4.28774C10.2889 3.83303 9.93498 3.46436 9.49846 3.46436C9.06193 3.46436 8.70801 3.83303 8.70801 4.28774V10.5146C8.70801 10.9693 9.06193 11.338 9.49846 11.338H14.6032C15.0397 11.338 15.3936 10.9693 15.3936 10.5146C15.3936 10.0599 15.0397 9.6912 14.6032 9.6912Z" fill="white"/>
</g>
<defs>
<clipPath id="clip0_225_521">
<rect width="19.2" height="20" fill="white"/>
</clipPath>
</defs>
</svg>
