<svg width="24" height="24" viewBox="0 0 24 24" fill="none" xmlns="http://www.w3.org/2000/svg">
<g clip-path="url(#clip0_225_554)">
<path d="M21.1031 19.0993C21.0326 19.0535 20.5016 18.6816 19.97 17.5563C18.9936 15.49 18.7887 12.5792 18.7887 10.5012C18.7887 10.4921 18.7885 10.4832 18.7882 10.4742C18.7775 7.7278 17.133 5.36033 14.7797 4.2981V2.67356C14.7797 1.19934 13.5823 0 12.1106 0H11.8894C10.4176 0 9.22021 1.19934 9.22021 2.67356V4.29801C6.85902 5.36366 5.21123 7.74322 5.21123 10.5012C5.21123 12.5792 5.00629 15.49 4.02994 17.5563C3.49833 18.6815 2.96737 19.0535 2.89678 19.0993C2.5995 19.2369 2.45292 19.5547 2.52131 19.8768C2.59036 20.2021 2.89439 20.4263 3.22641 20.4263H8.38016C8.40894 22.4017 10.0212 24 12 24C13.9788 24 15.591 22.4017 15.6198 20.4263H20.7736C21.1055 20.4263 21.4096 20.2021 21.4787 19.8768C21.547 19.5547 21.4004 19.2369 21.1031 19.0993V19.0993ZM10.6265 2.67356C10.6265 1.97601 11.193 1.40854 11.8894 1.40854H12.1106C12.807 1.40854 13.3735 1.97601 13.3735 2.67356V3.84154C12.9297 3.74981 12.4703 3.70153 11.9998 3.70153C11.5295 3.70153 11.0702 3.74976 10.6265 3.8414V2.67356H10.6265ZM12 22.5914C10.7966 22.5914 9.81496 21.625 9.78641 20.4264H14.2135C14.185 21.6249 13.2034 22.5914 12 22.5914V22.5914ZM14.8312 19.0177C14.8311 19.0177 4.82882 19.0177 4.82882 19.0177C4.95046 18.8282 5.07426 18.6135 5.19731 18.3709C6.13968 16.5127 6.61752 13.8649 6.61752 10.5012C6.61752 7.52849 9.032 5.11007 11.9997 5.11007C14.9675 5.11007 17.382 7.52849 17.382 10.5035C17.382 10.5122 17.3821 10.5208 17.3824 10.5294C17.3851 13.8797 17.8629 16.5179 18.8027 18.3709C18.9257 18.6136 19.0495 18.8282 19.1711 19.0177H14.8312Z" fill="white"/>
<circle cx="18.9999" cy="19" r="4.99999" fill="#0F263D"/>
</g>
<defs>
<clipPath id="clip0_225_554">
<rect width="23.04" height="23.04" fill="white" transform="scale(1.04166)"/>
</clipPath>
</defs>
</svg>
